<?xml version="1.0" encoding="UTF-8"?>
<!-- Generator: Adobe Illustrator 22.0.1, SVG Export Plug-In . SVG Version: 6.00 Build 0)  -->
<svg version="1.1" id="Ñëîé_1" xmlns="http://www.w3.org/2000/svg" xmlns:xlink="http://www.w3.org/1999/xlink" x="0px" y="0px" viewBox="0 0 348 339" style="enable-background:new 0 0 348 339;" xml:space="preserve">
<style type="text/css">
	.st0{fill:#D4ECFF;}
	.st1{fill:#5793CE;}
	.st2{fill:#396CAA;}
	.st3{fill:#173D7A;}
	.st4{fill:#274F89;}
	.st5{fill:#FFFFFF;}
	.st6{fill:#FF2C9C;}
	.st7{fill:#E83B1F;}
	.st8{fill:#E2E2E2;}
	.st9{fill:url(#SVGID_1_);}
	.st10{fill:#EAEAEA;}
	.st11{fill:#FFC2B0;}
	.st12{fill:#EA9C92;}
	.st13{fill:#D3008D;}
</style>
<g>
	<path class="st0" d="M311.2,111.2v85.3c0,2.9-2,4.1-4.5,2.6l-115.2-66.5c-2.5-1.4-4.5-5-4.5-7.9V39.4L311.2,111.2z"/>
</g>
<path class="st1" d="M212.9,193.7c-0.2,0-0.5-0.1-0.6-0.3c-0.2-0.3-0.1-0.7,0.2-0.9l9.1-5.3c1-0.6,1.7-1.7,1.7-2.9v-7  c0-0.4,0.3-0.7,0.7-0.7c0.4,0,0.7,0.3,0.7,0.7v7c0,1.7-0.9,3.2-2.3,4.1l-9.1,5.3C213.2,193.7,213,193.7,212.9,193.7z"/>
<g>
	<g>
		<g>
			<g>
				
					<rect x="205.9" y="189.5" transform="matrix(0.4974 0.8675 -0.8675 0.4974 274.4382 -82.7924)" class="st1" width="5.5" height="12"/>
				<path class="st1" d="M215.8,193.6c0-1.3-0.9-2.8-2-3.4s-2-0.1-2,1.1c0,1.3,0.9,2.8,2,3.4C214.9,195.4,215.8,194.9,215.8,193.6z"/>
			</g>
			<g>
				
					<rect x="192.7" y="192.7" transform="matrix(0.4974 0.8675 -0.8675 0.4974 274.3802 -69.4804)" class="st1" width="9" height="18.8"/>
				<path class="st2" d="M203.8,195.1l3.5-2c1.5,1,2.6,3,2.8,4.8l-3.5,2C205.1,198.8,204,196.8,203.8,195.1z"/>
				<path class="st1" d="M208.5,199.2c0-2-1.4-4.5-3.2-5.5c-1.8-1-3.2-0.2-3.2,1.8c0,2,1.4,4.5,3.2,5.5S208.5,201.3,208.5,199.2z"/>
			</g>
		</g>
	</g>
	<path class="st0" d="M212.5,192.3c0.5-0.3,0.5-0.8,0-1.1c-0.5-0.3-1.3-0.3-1.8,0c-0.5,0.3-0.5,0.8,0,1.1   C211.2,192.6,212,192.6,212.5,192.3z"/>
</g>
<path class="st1" d="M72.7,194.9c-0.1,0-0.2,0-0.3-0.1l-8-4.6c-0.7-0.4-1.1-1.1-1.1-1.8s0.4-1.5,1.1-1.8l51.7-28.3  c4.8-2.6,7.7-7.6,7.7-13V80.9c0-1.1-0.6-2.1-1.5-2.7c-1-0.6-2.1-0.6-3.1-0.1L102,87.6c-0.3,0.2-0.7,0.1-0.9-0.3  c-0.2-0.3-0.1-0.7,0.3-0.9l17.2-9.4c1.4-0.8,3-0.7,4.4,0.1c1.4,0.8,2.2,2.2,2.2,3.8v64.3c0,5.9-3.2,11.4-8.4,14.2l-51.7,28.3  c-0.4,0.2-0.4,0.5-0.4,0.7c0,0.1,0,0.5,0.4,0.7l8,4.6c0.3,0.2,0.4,0.6,0.2,0.9C73.2,194.7,72.9,194.9,72.7,194.9z"/>
<g>
	<g>
		<g>
			<g>
				
					<rect x="97.3" y="82.3" transform="matrix(0.4974 0.8675 -0.8675 0.4974 126.8386 -42.4392)" class="st1" width="5.5" height="12"/>
				<path class="st1" d="M107.2,86.4c0-1.3-0.9-2.8-2-3.4c-1.1-0.6-2-0.1-2,1.1c0,1.3,0.9,2.8,2,3.4      C106.3,88.2,107.2,87.7,107.2,86.4z"/>
			</g>
			<g>
				
					<rect x="84" y="85.5" transform="matrix(0.4974 0.8675 -0.8675 0.4974 126.7783 -29.1277)" class="st1" width="9" height="18.8"/>
				<path class="st2" d="M95.2,87.8l3.5-2c1.5,1,2.6,3,2.8,4.8l-3.5,2C96.5,91.6,95.3,89.6,95.2,87.8z"/>
				<path class="st1" d="M99.8,92c0-2-1.4-4.5-3.2-5.5c-1.8-1-3.2-0.2-3.2,1.8c0,2,1.4,4.5,3.2,5.5C98.4,94.9,99.8,94.1,99.8,92z"/>
			</g>
		</g>
	</g>
	<path class="st0" d="M103.9,85.1c0.5-0.3,0.5-0.8,0-1.1c-0.5-0.3-1.3-0.3-1.8,0c-0.5,0.3-0.5,0.8,0,1.1   C102.6,85.4,103.4,85.4,103.9,85.1z"/>
</g>
<g>
	<g>
		<g>
			<g>
				
					<rect x="71.3" y="188.7" transform="matrix(-0.4975 0.8675 -0.8675 -0.4975 279.9 227.2687)" class="st1" width="5.5" height="12"/>
				<path class="st1" d="M67,192.9c0-1.3,0.9-2.8,2-3.4c1.1-0.6,2-0.1,2,1.1c0,1.3-0.9,2.8-2,3.4S67,194.1,67,192.9z"/>
			</g>
			<g>
				
					<rect x="81.1" y="191.9" transform="matrix(-0.4974 0.8675 -0.8675 -0.4974 302.8786 227.1661)" class="st1" width="9" height="18.8"/>
				<path class="st2" d="M79,194.3l-3.5-2c-1.5,1-2.6,3-2.8,4.8l3.5,2C77.7,198.1,78.8,196.1,79,194.3z"/>
				<path class="st1" d="M74.3,198.5c0-2,1.4-4.5,3.2-5.5c1.8-1,3.2-0.2,3.2,1.8c0,2-1.4,4.5-3.2,5.5      C75.8,201.3,74.3,200.5,74.3,198.5z"/>
			</g>
		</g>
	</g>
	<path class="st0" d="M70.2,191.6c-0.5-0.3-0.5-0.8,0-1.1c0.5-0.3,1.3-0.3,1.8,0c0.5,0.3,0.5,0.8,0,1.1   C71.6,191.9,70.8,191.9,70.2,191.6z"/>
</g>
<g>
	<g>
		<path class="st0" d="M169.6,304.2L54.9,238c-3.2-1.9-2.8-5.1,0.9-7.3l78.1-45c3.7-2.2,9.4-2.4,12.7-0.5l114.6,66.2    c3.2,1.9,2.8,5.1-0.9,7.3l-78.1,45C178.5,305.8,172.8,306.1,169.6,304.2z"/>
		<path class="st3" d="M263.4,239l-15.7-2.1l-101.1-58.4c-3.2-1.9-8.9-1.6-12.7,0.5l-71.7,41.4l-9.5-1.3v5.4l0,0    c-0.1,1.2,0.6,2.4,2.2,3.3L169.6,294c3.2,1.9,8.9,1.6,12.7-0.5l78.1-45c2.1-1.2,3.2-2.8,3.1-4.3l0,0V239z"/>
		<path class="st2" d="M187.4,202.1l-7.2-4.1h-79l-38.9,22.5l-9.5-1.3v5.4l0,0c-0.1,1.2,0.6,2.4,2.2,3.3L169.6,294    c1.7,1,4.1,1.4,6.5,1.2L187.4,202.1z"/>
		<path class="st1" d="M57,219.7l-4.2-0.6v5.4l0,0c-0.1,1.2,0.6,2.4,2.2,3.3l2,1.2V219.7z"/>
		<path class="st4" d="M170.7,294.6c3.1,1.2,7.5,0.9,10.7-0.7v-12h-10.7V294.6z"/>
		<path class="st0" d="M169.6,288.7L54.9,222.5c-3.2-1.9-2.8-5.1,0.9-7.3l78.1-45c3.7-2.2,9.4-2.4,12.7-0.5l114.6,66.2    c3.2,1.9,2.8,5.1-0.9,7.3l-78.1,45C178.5,290.3,172.8,290.5,169.6,288.7z"/>
		<path class="st5" d="M260.3,241.1l-78.1,45c-3.7,2.2-9.4,2.4-12.7,0.5L54.9,220.5c-1.1-0.6-1.7-1.4-2-2.2c-0.5,1.5,0.1,3.1,2,4.2    l114.6,66.2c3.2,1.9,8.9,1.6,12.7-0.5l78.1-45c2.5-1.5,3.5-3.4,2.9-5.1C262.8,239.1,261.8,240.2,260.3,241.1z"/>
		<g>
			<path class="st3" d="M103.7,200.6l-5.2-3c-0.4-0.2-0.4-0.7,0.1-0.9l6.1-3.5c0.5-0.3,1.2-0.3,1.6-0.1l5.2,3     c0.4,0.2,0.4,0.7-0.1,0.9l-6.1,3.5C104.8,200.8,104.1,200.8,103.7,200.6z"/>
			<path class="st3" d="M111.7,205.2l-5.2-3c-0.4-0.2-0.4-0.7,0.1-0.9l6.1-3.5c0.5-0.3,1.2-0.3,1.6-0.1l5.2,3     c0.4,0.2,0.4,0.7-0.1,0.9l-6.1,3.5C112.8,205.4,112.1,205.4,111.7,205.2z"/>
			<path class="st3" d="M119.7,209.8l-5.2-3c-0.4-0.2-0.4-0.7,0.1-0.9l6.1-3.5c0.5-0.3,1.2-0.3,1.6-0.1l5.2,3     c0.4,0.2,0.4,0.7-0.1,0.9l-6.1,3.5C120.9,210,120.1,210.1,119.7,209.8z"/>
			<path class="st3" d="M130.8,206l-5.2-3c-0.4-0.2-0.4-0.7,0.1-0.9l5.1-3c0.5-0.3,1.2-0.3,1.6-0.1l5.2,3c0.4,0.2,0.4,0.7-0.1,0.9     l-5.1,3C131.9,206.2,131.2,206.2,130.8,206z"/>
			<path class="st3" d="M138.8,210.6l-5.2-3c-0.4-0.2-0.4-0.7,0.1-0.9l5.1-3c0.5-0.3,1.2-0.3,1.6-0.1l5.2,3c0.4,0.2,0.4,0.7-0.1,0.9     l-5.1,3C139.9,210.8,139.2,210.9,138.8,210.6z"/>
			<path class="st3" d="M146.8,215.2l-5.2-3c-0.4-0.2-0.4-0.7,0.1-0.9l5.1-3c0.5-0.3,1.2-0.3,1.6-0.1l5.2,3c0.4,0.2,0.4,0.7-0.1,0.9     l-5.1,3C148,215.5,147.2,215.5,146.8,215.2z"/>
			<path class="st3" d="M154.8,219.9l-5.2-3c-0.4-0.2-0.4-0.7,0.1-0.9l5.1-3c0.5-0.3,1.2-0.3,1.6-0.1l5.2,3c0.4,0.2,0.4,0.7-0.1,0.9     l-5.1,3C156,220.1,155.2,220.1,154.8,219.9z"/>
			<path class="st3" d="M162.8,224.5l-5.2-3c-0.4-0.2-0.4-0.7,0.1-0.9l5.1-3c0.5-0.3,1.2-0.3,1.6-0.1l5.2,3c0.4,0.2,0.4,0.7-0.1,0.9     l-5.1,3C164,224.7,163.2,224.7,162.8,224.5z"/>
			<path class="st3" d="M170.8,229.1l-5.2-3c-0.4-0.2-0.4-0.7,0.1-0.9l5.1-3c0.5-0.3,1.2-0.3,1.6-0.1l5.2,3c0.4,0.2,0.4,0.7-0.1,0.9     l-5.1,3C172,229.3,171.3,229.4,170.8,229.1z"/>
			<path class="st3" d="M178.8,233.7l-5.2-3c-0.4-0.2-0.4-0.7,0.1-0.9l5.1-3c0.5-0.3,1.2-0.3,1.6-0.1l5.2,3c0.4,0.2,0.4,0.7-0.1,0.9     l-5.1,3C180,233.9,179.3,234,178.8,233.7z"/>
			<path class="st3" d="M186.9,238.4l-5.2-3c-0.4-0.2-0.4-0.7,0.1-0.9l5.1-3c0.5-0.3,1.2-0.3,1.6-0.1l5.2,3c0.4,0.2,0.4,0.7-0.1,0.9     l-5.1,3C188,238.6,187.3,238.6,186.9,238.4z"/>
			<path class="st3" d="M194.9,243l-5.2-3c-0.4-0.2-0.4-0.7,0.1-0.9l5.1-3c0.5-0.3,1.2-0.3,1.6-0.1l5.2,3c0.4,0.2,0.4,0.7-0.1,0.9     l-5.1,3C196,243.2,195.3,243.2,194.9,243z"/>
			<path class="st3" d="M202.9,247.6l-5.2-3c-0.4-0.2-0.4-0.7,0.1-0.9l5.1-3c0.5-0.3,1.2-0.3,1.6-0.1l5.2,3c0.4,0.2,0.4,0.7-0.1,0.9     l-5.1,3C204,247.8,203.3,247.9,202.9,247.6z"/>
			<path class="st2" d="M142.6,203.8l-5.2-3c-0.4-0.2-0.4-0.7,0.1-0.9l5.1-3c0.5-0.3,1.2-0.3,1.6-0.1l5.2,3c0.4,0.2,0.4,0.7-0.1,0.9     l-5.1,3C143.7,204,143,204,142.6,203.8z"/>
			<path class="st2" d="M134.5,199.1l-5.2-3c-0.4-0.2-0.4-0.7,0.1-0.9l5.1-3c0.5-0.3,1.2-0.3,1.6-0.1l5.2,3c0.4,0.2,0.4,0.7-0.1,0.9     l-5.1,3C135.6,199.3,134.9,199.4,134.5,199.1z"/>
			<path class="st3" d="M126.3,194.4l-11.2-6.4c-0.4-0.2-0.4-0.7,0.1-0.9l5.1-3c0.5-0.3,1.2-0.3,1.6-0.1l11.2,6.4     c0.4,0.2,0.4,0.7-0.1,0.9l-5.1,3C127.5,194.6,126.7,194.6,126.3,194.4z"/>
			<path class="st3" d="M132,188.7l-9.1-5.2c-0.4-0.2-0.4-0.7,0.1-0.9l5.1-3c0.5-0.3,1.2-0.3,1.6-0.1l9.1,5.2     c0.4,0.2,0.4,0.7-0.1,0.9l-5.1,3C133.2,188.9,132.4,188.9,132,188.7z"/>
			<path class="st2" d="M150.6,208.4l-5.2-3c-0.4-0.2-0.4-0.7,0.1-0.9l5.1-3c0.5-0.3,1.2-0.3,1.6-0.1l5.2,3c0.4,0.2,0.4,0.7-0.1,0.9     l-5.1,3C151.7,208.6,151,208.7,150.6,208.4z"/>
			<path class="st3" d="M158.6,213.1l-5.2-3c-0.4-0.2-0.4-0.7,0.1-0.9l5.1-3c0.5-0.3,1.2-0.3,1.6-0.1l5.2,3c0.4,0.2,0.4,0.7-0.1,0.9     l-5.1,3C159.8,213.3,159,213.3,158.6,213.1z"/>
			<path class="st3" d="M166.6,217.7l-5.2-3c-0.4-0.2-0.4-0.7,0.1-0.9l5.1-3c0.5-0.3,1.2-0.3,1.6-0.1l5.2,3c0.4,0.2,0.4,0.7-0.1,0.9     l-5.1,3C167.8,217.9,167,217.9,166.6,217.7z"/>
			<path class="st3" d="M174.6,222.3l-5.2-3c-0.4-0.2-0.4-0.7,0.1-0.9l5.1-3c0.5-0.3,1.2-0.3,1.6-0.1l5.2,3c0.4,0.2,0.4,0.7-0.1,0.9     l-5.1,3C175.8,222.5,175,222.5,174.6,222.3z"/>
			<path class="st3" d="M182.6,226.9l-5.2-3c-0.4-0.2-0.4-0.7,0.1-0.9l5.1-3c0.5-0.3,1.2-0.3,1.6-0.1l5.2,3c0.4,0.2,0.4,0.7-0.1,0.9     l-5.1,3C183.8,227.1,183.1,227.2,182.6,226.9z"/>
			<path class="st3" d="M190.6,231.5l-5.2-3c-0.4-0.2-0.4-0.7,0.1-0.9l5.1-3c0.5-0.3,1.2-0.3,1.6-0.1l5.2,3c0.4,0.2,0.4,0.7-0.1,0.9     l-5.1,3C191.8,231.8,191.1,231.8,190.6,231.5z"/>
			<path class="st3" d="M198.7,236.2l-5.2-3c-0.4-0.2-0.4-0.7,0.1-0.9l5.1-3c0.5-0.3,1.2-0.3,1.6-0.1l5.2,3c0.4,0.2,0.4,0.7-0.1,0.9     l-5.1,3C199.8,236.4,199.1,236.4,198.7,236.2z"/>
			<path class="st3" d="M206.7,240.8l-5.2-3c-0.4-0.2-0.4-0.7,0.1-0.9l5.1-3c0.5-0.3,1.2-0.3,1.6-0.1l5.2,3c0.4,0.2,0.4,0.7-0.1,0.9     l-5.1,3C207.8,241,207.1,241,206.7,240.8z"/>
			<path class="st3" d="M214.7,245.4l-5.2-3c-0.4-0.2-0.4-0.7,0.1-0.9l5.1-3c0.5-0.3,1.2-0.3,1.6-0.1l5.2,3c0.4,0.2,0.4,0.7-0.1,0.9     l-5.1,3C215.8,245.6,215.1,245.7,214.7,245.4z"/>
			<path class="st3" d="M228.9,253.6l-11.3-6.5c-0.4-0.2-0.4-0.7,0.1-0.9l5.1-3c0.5-0.3,1.2-0.3,1.6-0.1l11.3,6.5     c0.4,0.2,0.4,0.7-0.1,0.9l-5.1,3C230.1,253.9,229.3,253.9,228.9,253.6z"/>
			<path class="st3" d="M244.5,244.6l-9.6-5.5c-0.4-0.2-0.4-0.7,0.1-0.9l5.1-3c0.5-0.3,1.2-0.3,1.6-0.1l9.6,5.5     c0.4,0.2,0.4,0.7-0.1,0.9l-5.1,3C245.7,244.8,244.9,244.9,244.5,244.6z"/>
			<path class="st3" d="M164.6,207.5l-5.2-3c-0.4-0.2-0.4-0.7,0.1-0.9l5.1-3c0.5-0.3,1.2-0.3,1.6-0.1l5.2,3c0.4,0.2,0.4,0.7-0.1,0.9     l-5.1,3C165.8,207.7,165,207.8,164.6,207.5z"/>
			<path class="st3" d="M156.4,202.8l-5.2-3c-0.4-0.2-0.4-0.7,0.1-0.9l5.1-3c0.5-0.3,1.2-0.3,1.6-0.1l5.2,3c0.4,0.2,0.4,0.7-0.1,0.9     l-5.1,3C157.6,203,156.8,203,156.4,202.8z"/>
			<path class="st2" d="M148.2,198l-5.2-3c-0.4-0.2-0.4-0.7,0.1-0.9l5.1-3c0.5-0.3,1.2-0.3,1.6-0.1l5.2,3c0.4,0.2,0.4,0.7-0.1,0.9     l-5.1,3C149.4,198.3,148.6,198.3,148.2,198z"/>
			<path class="st3" d="M140,193.3l-5.2-3c-0.4-0.2-0.4-0.7,0.1-0.9l5.1-3c0.5-0.3,1.2-0.3,1.6-0.1l5.2,3c0.4,0.2,0.4,0.7-0.1,0.9     l-5.1,3C141.1,193.5,140.4,193.5,140,193.3z"/>
			<path class="st3" d="M172.6,212.1l-5.2-3c-0.4-0.2-0.4-0.7,0.1-0.9l5.1-3c0.5-0.3,1.2-0.3,1.6-0.1l5.2,3c0.4,0.2,0.4,0.7-0.1,0.9     l-5.1,3C173.8,212.4,173.1,212.4,172.6,212.1z"/>
			<path class="st3" d="M180.6,216.8l-5.2-3c-0.4-0.2-0.4-0.7,0.1-0.9l5.1-3c0.5-0.3,1.2-0.3,1.6-0.1l5.2,3c0.4,0.2,0.4,0.7-0.1,0.9     l-5.1,3C181.8,217,181.1,217,180.6,216.8z"/>
			<path class="st3" d="M188.7,221.4l-5.2-3c-0.4-0.2-0.4-0.7,0.1-0.9l5.1-3c0.5-0.3,1.2-0.3,1.6-0.1l5.2,3c0.4,0.2,0.4,0.7-0.1,0.9     l-5.1,3C189.8,221.6,189.1,221.6,188.7,221.4z"/>
			<path class="st3" d="M196.7,226l-5.2-3c-0.4-0.2-0.4-0.7,0.1-0.9l5.1-3c0.5-0.3,1.2-0.3,1.6-0.1l5.2,3c0.4,0.2,0.4,0.7-0.1,0.9     l-5.1,3C197.8,226.2,197.1,226.3,196.7,226z"/>
			<path class="st3" d="M204.7,230.6l-5.2-3c-0.4-0.2-0.4-0.7,0.1-0.9l5.1-3c0.5-0.3,1.2-0.3,1.6-0.1l5.2,3c0.4,0.2,0.4,0.7-0.1,0.9     l-5.1,3C205.8,230.9,205.1,230.9,204.7,230.6z"/>
			<path class="st3" d="M212.7,235.3l-5.2-3c-0.4-0.2-0.4-0.7,0.1-0.9l5.1-3c0.5-0.3,1.2-0.3,1.6-0.1l5.2,3c0.4,0.2,0.4,0.7-0.1,0.9     l-5.1,3C213.8,235.5,213.1,235.5,212.7,235.3z"/>
			<path class="st3" d="M220.7,239.9l-5.2-3c-0.4-0.2-0.4-0.7,0.1-0.9l5.1-3c0.5-0.3,1.2-0.3,1.6-0.1l5.2,3c0.4,0.2,0.4,0.7-0.1,0.9     l-5.1,3C221.8,240.1,221.1,240.1,220.7,239.9z"/>
			<path class="st3" d="M228.7,244.5l-5.2-3c-0.4-0.2-0.4-0.7,0.1-0.9l5.1-3c0.5-0.3,1.2-0.3,1.6-0.1l5.2,3c0.4,0.2,0.4,0.7-0.1,0.9     l-5.1,3C229.8,244.7,229.1,244.8,228.7,244.5z"/>
			<path class="st3" d="M236.7,249.1l-5.2-3c-0.4-0.2-0.4-0.7,0.1-0.9l5.1-3c0.5-0.3,1.2-0.3,1.6-0.1l5.2,3c0.4,0.2,0.4,0.7-0.1,0.9     l-5.1,3C237.9,249.4,237.1,249.4,236.7,249.1z"/>
			<path class="st3" d="M160.4,196.1l-5.2-3c-0.4-0.2-0.4-0.7,0.1-0.9l5.1-3c0.5-0.3,1.2-0.3,1.6-0.1l5.2,3c0.4,0.2,0.4,0.7-0.1,0.9     l-5.1,3C161.6,196.3,160.8,196.3,160.4,196.1z"/>
			<path class="st3" d="M152.4,191.5l-5.2-3c-0.4-0.2-0.4-0.7,0.1-0.9l5.1-3c0.5-0.3,1.2-0.3,1.6-0.1l5.2,3c0.4,0.2,0.4,0.7-0.1,0.9     l-5.1,3C153.6,191.7,152.9,191.7,152.4,191.5z"/>
			<path class="st3" d="M144.5,186.9l-5.2-3c-0.4-0.2-0.4-0.7,0.1-0.9l5.1-3c0.5-0.3,1.2-0.3,1.6-0.1l5.2,3c0.4,0.2,0.4,0.7-0.1,0.9     l-5.1,3C145.6,187.1,144.9,187.1,144.5,186.9z"/>
			<path class="st3" d="M136.5,182.3l-5.2-3c-0.4-0.2-0.4-0.7,0.1-0.9l5.1-3c0.5-0.3,1.2-0.3,1.6-0.1l5.2,3c0.4,0.2,0.4,0.7-0.1,0.9     l-5.1,3C137.6,182.5,136.9,182.5,136.5,182.3z"/>
			<path class="st3" d="M144.7,177.5l-5.2-3c-0.4-0.2-0.4-0.7,0.1-0.9l1.7-1c0.5-0.3,1.2-0.3,1.6-0.1l5.2,3c0.4,0.2,0.4,0.7-0.1,0.9     l-1.7,1C145.8,177.8,145.1,177.8,144.7,177.5z"/>
			<path class="st3" d="M155.1,183.6l-5.2-3c-0.4-0.2-0.4-0.7,0.1-0.9l1.7-1c0.5-0.3,1.2-0.3,1.6-0.1l5.2,3c0.4,0.2,0.4,0.7-0.1,0.9     l-1.7,1C156.2,183.8,155.5,183.8,155.1,183.6z"/>
			<path class="st3" d="M163,188.1l-5.2-3c-0.4-0.2-0.4-0.7,0.1-0.9l1.7-1c0.5-0.3,1.2-0.3,1.6-0.1l5.2,3c0.4,0.2,0.4,0.7-0.1,0.9     l-1.7,1C164.2,188.3,163.4,188.4,163,188.1z"/>
			<path class="st3" d="M171,192.7l-5.2-3c-0.4-0.2-0.4-0.7,0.1-0.9l1.7-1c0.5-0.3,1.2-0.3,1.6-0.1l5.2,3c0.4,0.2,0.4,0.7-0.1,0.9     l-1.7,1C172.1,192.9,171.4,193,171,192.7z"/>
			<path class="st3" d="M178.9,197.3l-5.2-3c-0.4-0.2-0.4-0.7,0.1-0.9l1.7-1c0.5-0.3,1.2-0.3,1.6-0.1l5.2,3c0.4,0.2,0.4,0.7-0.1,0.9     l-1.7,1C180,197.5,179.3,197.5,178.9,197.3z"/>
			<path class="st3" d="M223.2,222.9l-5.2-3c-0.4-0.2-0.4-0.7,0.1-0.9l1.7-1c0.5-0.3,1.2-0.3,1.6-0.1l5.2,3c0.4,0.2,0.4,0.7-0.1,0.9     l-1.7,1C224.4,223.1,223.6,223.1,223.2,222.9z"/>
			<path class="st3" d="M231.1,227.5l-5.2-3c-0.4-0.2-0.4-0.7,0.1-0.9l1.7-1c0.5-0.3,1.2-0.3,1.6-0.1l5.2,3c0.4,0.2,0.4,0.7-0.1,0.9     l-1.7,1C232.3,227.7,231.6,227.7,231.1,227.5z"/>
			<path class="st3" d="M239.1,232l-5.2-3c-0.4-0.2-0.4-0.7,0.1-0.9l1.7-1c0.5-0.3,1.2-0.3,1.6-0.1l5.2,3c0.4,0.2,0.4,0.7-0.1,0.9     l-1.7,1C240.2,232.3,239.5,232.3,239.1,232z"/>
			<path class="st3" d="M247,236.6l-5.2-3c-0.4-0.2-0.4-0.7,0.1-0.9l1.7-1c0.5-0.3,1.2-0.3,1.6-0.1l5.2,3c0.4,0.2,0.4,0.7-0.1,0.9     l-1.7,1C248.2,236.8,247.4,236.9,247,236.6z"/>
			<path class="st3" d="M168.4,200.7l-5.2-3c-0.4-0.2-0.4-0.7,0.1-0.9l5.1-3c0.5-0.3,1.2-0.3,1.6-0.1l5.2,3c0.4,0.2,0.4,0.7-0.1,0.9     l-5.1,3C169.6,200.9,168.8,200.9,168.4,200.7z"/>
			<path class="st3" d="M176.4,205.3l-5.2-3c-0.4-0.2-0.4-0.7,0.1-0.9l5.1-3c0.5-0.3,1.2-0.3,1.6-0.1l5.2,3c0.4,0.2,0.4,0.7-0.1,0.9     l-5.1,3C177.6,205.5,176.8,205.6,176.4,205.3z"/>
			<path class="st3" d="M184.4,210l-5.2-3c-0.4-0.2-0.4-0.7,0.1-0.9l5.1-3c0.5-0.3,1.2-0.3,1.6-0.1l5.2,3c0.4,0.2,0.4,0.7-0.1,0.9     l-5.1,3C185.6,210.2,184.9,210.2,184.4,210z"/>
			<path class="st3" d="M192.4,214.6l-5.2-3c-0.4-0.2-0.4-0.7,0.1-0.9l5.1-3c0.5-0.3,1.2-0.3,1.6-0.1l5.2,3c0.4,0.2,0.4,0.7-0.1,0.9     l-5.1,3C193.6,214.8,192.9,214.8,192.4,214.6z"/>
			<path class="st3" d="M200.5,219.2l-5.2-3c-0.4-0.2-0.4-0.7,0.1-0.9l5.1-3c0.5-0.3,1.2-0.3,1.6-0.1l5.2,3c0.4,0.2,0.4,0.7-0.1,0.9     l-5.1,3C201.6,219.4,200.9,219.4,200.5,219.2z"/>
			<path class="st3" d="M208.5,223.8l-5.2-3c-0.4-0.2-0.4-0.7,0.1-0.9l5.1-3c0.5-0.3,1.2-0.3,1.6-0.1l5.2,3c0.4,0.2,0.4,0.7-0.1,0.9     l-5.1,3C209.6,224,208.9,224.1,208.5,223.8z"/>
			<path class="st3" d="M216.5,228.5l-5.2-3c-0.4-0.2-0.4-0.7,0.1-0.9l5.1-3c0.5-0.3,1.2-0.3,1.6-0.1l5.2,3c0.4,0.2,0.4,0.7-0.1,0.9     l-5.1,3C217.6,228.7,216.9,228.7,216.5,228.5z"/>
			<path class="st3" d="M224.5,233.1l-5.2-3c-0.4-0.2-0.4-0.7,0.1-0.9l5.1-3c0.5-0.3,1.2-0.3,1.6-0.1l5.2,3c0.4,0.2,0.4,0.7-0.1,0.9     l-5.1,3C225.6,233.3,224.9,233.3,224.5,233.1z"/>
			<path class="st3" d="M232.5,237.7l-5.2-3c-0.4-0.2-0.4-0.7,0.1-0.9l5.1-3c0.5-0.3,1.2-0.3,1.6-0.1l5.2,3c0.4,0.2,0.4,0.7-0.1,0.9     l-5.1,3C233.6,237.9,232.9,237.9,232.5,237.7z"/>
			<path class="st3" d="M122.6,201.3l-15.3-8.8c-0.4-0.2-0.4-0.7,0.1-0.9l5.1-3c0.5-0.3,1.2-0.3,1.6-0.1l15.3,8.8     c0.4,0.2,0.4,0.7-0.1,0.9l-5.1,3C123.8,201.5,123,201.5,122.6,201.3z"/>
			<path class="st3" d="M221,258.1l-15.3-8.8c-0.4-0.2-0.4-0.7,0.1-0.9l5.1-3c0.5-0.3,1.2-0.3,1.6-0.1l15.3,8.8     c0.4,0.2,0.4,0.7-0.1,0.9l-5.1,3C222.2,258.3,221.4,258.3,221,258.1z"/>
			<path class="st3" d="M189,249.8l-5.2-3c-0.4-0.2-0.4-0.7,0.1-0.9l6.1-3.5c0.5-0.3,1.2-0.3,1.6-0.1l5.2,3c0.4,0.2,0.4,0.7-0.1,0.9     l-6.1,3.5C190.1,250,189.4,250.1,189,249.8z"/>
			<path class="st3" d="M130.8,216.2l-8.3-4.8c-0.4-0.2-0.4-0.7,0.1-0.9l6.1-3.5c0.5-0.3,1.2-0.3,1.6-0.1l8.3,4.8     c0.4,0.2,0.4,0.7-0.1,0.9l-6.1,3.5C132,216.4,131.2,216.5,130.8,216.2z"/>
			<path class="st3" d="M181.3,245.4l-8.3-4.8c-0.4-0.2-0.4-0.7,0.1-0.9l6.1-3.5c0.5-0.3,1.2-0.3,1.6-0.1l8.3,4.8     c0.4,0.2,0.4,0.7-0.1,0.9l-6.1,3.5C182.4,245.6,181.7,245.6,181.3,245.4z"/>
			<path class="st3" d="M142.4,222.9l-8.3-4.8c-0.4-0.2-0.4-0.7,0.1-0.9l6.1-3.5c0.5-0.3,1.2-0.3,1.6-0.1l8.3,4.8     c0.4,0.2,0.4,0.7-0.1,0.9l-6.1,3.5C143.5,223.1,142.8,223.1,142.4,222.9z"/>
			<path class="st3" d="M142,213.6l36.1,20.8c0.4,0.3,0.4,0.7,0,0.9l-6.2,3.6c-0.4,0.3-1.2,0.3-1.6,0l-36.1-20.8L142,213.6z"/>
			<path class="st3" d="M211.4,258.2l5.8,3.3c0.3,0.2,0.3,0.5-0.1,0.8l-2.5,1.4c-0.4,0.2-1,0.3-1.3,0.1l-5.8-3.3     c-0.3-0.2-0.3-0.5,0.1-0.8l2.5-1.4C210.4,258,211,258,211.4,258.2z"/>
			<path class="st3" d="M203.3,253.5l5.8,3.3c0.3,0.2,0.3,0.5-0.1,0.8l-2.5,1.4c-0.4,0.2-1,0.3-1.3,0.1l-5.8-3.3     c-0.3-0.2-0.3-0.5,0.1-0.8l2.5-1.4C202.4,253.4,203,253.3,203.3,253.5z"/>
			<path class="st3" d="M195.3,248.9l5.8,3.3c0.3,0.2,0.3,0.5-0.1,0.8l-2.5,1.4c-0.4,0.2-1,0.3-1.3,0.1l-5.8-3.3     c-0.3-0.2-0.3-0.5,0.1-0.8l2.5-1.4C194.4,248.7,195,248.7,195.3,248.9z"/>
			<path class="st3" d="M207.7,251l5.8,3.3c0.3,0.2,0.3,0.5-0.1,0.8l-2.5,1.4c-0.4,0.2-1,0.3-1.3,0.1l-5.8-3.3     c-0.3-0.2-0.3-0.5,0.1-0.8l2.5-1.4C206.8,250.8,207.4,250.8,207.7,251z"/>
		</g>
	</g>
</g>
<g>
	<path class="st6" d="M301.6,117v85.3c0,2.9-2,4.1-4.5,2.6l-115.2-66.5c-2.5-1.4-4.5-5-4.5-7.9V45.3L301.6,117z"/>
</g>
<g>
	<g>
		<g>
			<g>
				<g>
					<path class="st2" d="M291.9,126.4v85.3c0,2.9-2,4.1-4.5,2.6l-115.2-66.5c-2.5-1.4-4.5-5-4.5-7.9V54.7L291.9,126.4z"/>
				</g>
				<g>
					<path class="st2" d="M167.6,37.8v16.9l124.3,71.8v-16.9c0-2.9-2-6.4-4.5-7.9L172.2,35.1C169.6,33.7,167.6,34.9,167.6,37.8z        M280,103c0-1.2,0.8-1.7,1.9-1.1c1,0.6,1.9,2.1,1.9,3.2c0,1.2-0.8,1.7-1.9,1.1C280.8,105.7,280,104.2,280,103z M274.8,100       c0-1.2,0.8-1.7,1.9-1.1c1,0.6,1.9,2.1,1.9,3.2c0,1.2-0.8,1.7-1.9,1.1C275.7,102.7,274.8,101.2,274.8,100z M263.5,93.5       c0-1.2,0.8-1.7,1.9-1.1s1.9,2.1,1.9,3.2c0,1.2-0.8,1.7-1.9,1.1S263.5,94.7,263.5,93.5z M258.3,90.5c0-1.2,0.8-1.7,1.9-1.1       c1,0.6,1.9,2.1,1.9,3.2c0,1.2-0.8,1.7-1.9,1.1C259.1,93.1,258.3,91.7,258.3,90.5z M247,84c0-1.2,0.8-1.7,1.9-1.1       c1,0.6,1.9,2.1,1.9,3.2c0,1.2-0.8,1.7-1.9,1.1C247.8,86.6,247,85.2,247,84z M241.8,81c0-1.2,0.8-1.7,1.9-1.1       c1,0.6,1.9,2.1,1.9,3.2c0,1.2-0.8,1.7-1.9,1.1C242.6,83.6,241.8,82.2,241.8,81z M230.5,74.4c0-1.2,0.8-1.7,1.9-1.1       c1,0.6,1.9,2.1,1.9,3.2c0,1.2-0.8,1.7-1.9,1.1C231.3,77.1,230.5,75.6,230.5,74.4z M225.3,71.4c0-1.2,0.8-1.7,1.9-1.1       c1,0.6,1.9,2.1,1.9,3.2c0,1.2-0.8,1.7-1.9,1.1C226.1,74.1,225.3,72.6,225.3,71.4z M214,64.9c0-1.2,0.8-1.7,1.9-1.1       c1,0.6,1.9,2.1,1.9,3.2s-0.8,1.7-1.9,1.1C214.8,67.5,214,66.1,214,64.9z M208.8,61.9c0-1.2,0.8-1.7,1.9-1.1       c1,0.6,1.9,2.1,1.9,3.2c0,1.2-0.8,1.7-1.9,1.1C209.6,64.5,208.8,63.1,208.8,61.9z M197.5,55.4c0-1.2,0.8-1.7,1.9-1.1       c1,0.6,1.9,2.1,1.9,3.2c0,1.2-0.8,1.7-1.9,1.1C198.3,58,197.5,56.6,197.5,55.4z M192.3,52.4c0-1.2,0.8-1.7,1.9-1.1       c1,0.6,1.9,2.1,1.9,3.2c0,1.2-0.8,1.7-1.9,1.1C193.1,55,192.3,53.6,192.3,52.4z M180.9,45.8c0-1.2,0.8-1.7,1.9-1.1       c1,0.6,1.9,2.1,1.9,3.2c0,1.2-0.8,1.7-1.9,1.1C181.8,48.5,180.9,47,180.9,45.8z M175.8,42.8c0-1.2,0.8-1.7,1.9-1.1       c1,0.6,1.9,2.1,1.9,3.2c0,1.2-0.8,1.7-1.9,1.1C176.6,45.5,175.8,44,175.8,42.8z"/>
				</g>
				<g>
					<path class="st7" d="M186.5,59.8l86.5,49.9c0.7,0.4,1.2,0,1.2-0.9l0,0c0-0.9-0.6-2-1.2-2.4l-86.5-49.9c-0.7-0.4-1.2,0-1.2,0.9       l0,0C185.3,58.4,185.8,59.4,186.5,59.8z"/>
				</g>
				<g>
					<g>
						<polygon class="st1" points="184.7,89.1 193.6,94.2 193.6,86.7 184.7,81.6       "/>
					</g>
					<g>
						<polygon class="st1" points="198.3,96.9 207.1,102 207.1,94.5 198.3,89.4       "/>
					</g>
					<g>
						<polygon class="st1" points="184.7,101.4 193.6,106.5 193.6,99 184.7,93.9       "/>
					</g>
					<g>
						<polygon class="st1" points="198.3,109.2 207.1,114.3 207.1,106.8 198.3,101.7       "/>
					</g>
					<g>
						<polygon class="st8" points="211.8,117 220.7,122.1 220.7,114.6 211.8,109.5       "/>
					</g>
					<g>
						<polygon class="st8" points="225.3,124.8 234.2,129.9 234.2,122.4 225.3,117.3       "/>
					</g>
					<g>
						<polygon class="st8" points="238.9,132.6 247.7,137.7 247.7,130.2 238.9,125.1       "/>
					</g>
					<g>
						<polygon class="st8" points="252.4,140.4 261.2,145.5 261.2,138 252.4,132.9       "/>
					</g>
					<g>
						<polygon class="st8" points="265.9,148.2 274.8,153.3 274.8,145.8 265.9,140.7       "/>
					</g>
					<g>
						<polygon class="st1" points="184.7,113.6 193.6,118.7 193.6,111.2 184.7,106.1       "/>
					</g>
					<g>
						<polygon class="st1" points="198.3,121.4 207.1,126.5 207.1,119 198.3,113.9       "/>
					</g>
					<g>
						<polygon class="st8" points="211.8,129.2 220.7,134.3 220.7,126.8 211.8,121.7       "/>
					</g>
					<g>
						<polygon class="st8" points="225.3,137 234.2,142.1 234.2,134.6 225.3,129.5       "/>
					</g>
					<g>
						<polygon class="st8" points="238.9,144.8 247.7,149.9 247.7,142.4 238.9,137.3       "/>
					</g>
					<g>
						<polygon class="st8" points="252.4,152.6 261.2,157.8 261.2,150.3 252.4,145.2       "/>
					</g>
					<g>
						<polygon class="st8" points="265.9,160.5 274.8,165.6 274.8,158.1 265.9,153       "/>
					</g>
					<g>
						<polygon class="st1" points="184.7,125.8 193.6,130.9 193.6,123.4 184.7,118.3       "/>
					</g>
					<g>
						<polygon class="st1" points="198.3,133.6 207.1,138.7 207.1,131.2 198.3,126.1       "/>
					</g>
					<g>
						<polygon class="st8" points="211.8,141.4 220.7,146.6 220.7,139.1 211.8,133.9       "/>
					</g>
					<g>
						<polygon class="st8" points="225.3,149.3 234.2,154.4 234.2,146.9 225.3,141.8       "/>
					</g>
					<g>
						<polygon class="st8" points="238.9,157.1 247.7,162.2 247.7,154.7 238.9,149.6       "/>
					</g>
					<g>
						<polygon class="st8" points="252.4,164.9 261.2,170 261.2,162.5 252.4,157.4       "/>
					</g>
					<g>
						<polygon class="st8" points="265.9,172.7 274.8,177.8 274.8,170.3 265.9,165.2       "/>
					</g>
					<g>
						<polygon class="st1" points="184.7,138.1 193.6,143.2 193.6,135.7 184.7,130.6       "/>
					</g>
					<g>
						<polygon class="st1" points="198.3,145.9 207.1,151 207.1,143.5 198.3,138.4       "/>
					</g>
					<g>
						<polygon class="st8" points="211.8,153.7 220.7,158.8 220.7,151.3 211.8,146.2       "/>
					</g>
					<g>
						<polygon class="st8" points="225.3,161.5 234.2,166.6 234.2,159.1 225.3,154       "/>
					</g>
					<g>
						<polygon class="st8" points="238.9,169.3 247.7,174.4 247.7,166.9 238.9,161.8       "/>
					</g>
					<g>
						<polygon class="st8" points="252.4,177.1 261.2,182.2 261.2,174.7 252.4,169.6       "/>
					</g>
					<g>
						<polygon class="st8" points="265.9,184.9 274.8,190 274.8,182.5 265.9,177.4       "/>
					</g>
				</g>
			</g>
			<g>
				<polygon class="st8" points="289.3,215.4 290.6,214.7 289.2,214.4     "/>
			</g>
			<g>
				<g>
					<path class="st0" d="M290.6,127.2v85.3c0,2.9-2,4.1-4.5,2.6l-115.2-66.5c-2.5-1.4-4.5-5-4.5-7.9V55.5L290.6,127.2z"/>
				</g>
				<g>
					<g>
						<path class="st2" d="M279.8,102.5c-0.1,0.2-0.2,0.5-0.2,0.8c0,1.2,0.8,2.7,1.9,3.3c0.3,0.2,0.5,0.2,0.8,0.2        c-0.3,0.5-0.9,0.7-1.7,0.2c-1-0.6-1.9-2.1-1.9-3.3C278.7,102.9,279.2,102.4,279.8,102.5z"/>
					</g>
					<g>
						<path class="st2" d="M274.6,99.5c-0.1,0.2-0.2,0.5-0.2,0.8c0,1.2,0.8,2.7,1.9,3.3c0.3,0.2,0.5,0.2,0.8,0.2        c-0.3,0.5-0.9,0.7-1.7,0.2c-1-0.6-1.9-2.1-1.9-3.3C273.5,99.9,274,99.4,274.6,99.5z"/>
					</g>
					<g>
						<path class="st2" d="M263.3,92.9c-0.1,0.2-0.2,0.5-0.2,0.8c0,1.2,0.8,2.7,1.9,3.3c0.3,0.2,0.5,0.2,0.8,0.2        c-0.3,0.5-0.9,0.7-1.7,0.2c-1-0.6-1.9-2.1-1.9-3.3C262.2,93.4,262.7,92.9,263.3,92.9z"/>
					</g>
					<g>
						<path class="st2" d="M258.1,89.9c-0.1,0.2-0.2,0.5-0.2,0.8c0,1.2,0.8,2.7,1.9,3.3c0.3,0.2,0.5,0.2,0.8,0.2        c-0.3,0.5-0.9,0.7-1.7,0.2c-1-0.6-1.9-2.1-1.9-3.3C257,90.4,257.5,89.9,258.1,89.9z"/>
					</g>
					<g>
						<path class="st2" d="M246.8,83.4c-0.1,0.2-0.2,0.5-0.2,0.8c0,1.2,0.8,2.7,1.9,3.3c0.3,0.2,0.5,0.2,0.8,0.2        c-0.3,0.5-0.9,0.7-1.7,0.2c-1-0.6-1.9-2.1-1.9-3.3C245.7,83.8,246.2,83.4,246.8,83.4z"/>
					</g>
					<g>
						<path class="st2" d="M241.6,80.4c-0.1,0.2-0.2,0.5-0.2,0.8c0,1.2,0.8,2.7,1.9,3.3c0.3,0.2,0.5,0.2,0.8,0.2        c-0.3,0.5-0.9,0.7-1.7,0.2c-1-0.6-1.9-2.1-1.9-3.3C240.5,80.8,241,80.4,241.6,80.4z"/>
					</g>
					<g>
						<path class="st2" d="M230.3,73.9c-0.1,0.2-0.2,0.5-0.2,0.8c0,1.2,0.8,2.7,1.9,3.3c0.3,0.2,0.5,0.2,0.8,0.2        c-0.3,0.5-0.9,0.7-1.7,0.2c-1-0.6-1.9-2.1-1.9-3.3C229.2,74.3,229.6,73.8,230.3,73.9z"/>
					</g>
					<g>
						<path class="st2" d="M225.1,70.9c-0.1,0.2-0.2,0.5-0.2,0.8c0,1.2,0.8,2.7,1.9,3.3c0.3,0.2,0.5,0.2,0.8,0.2        c-0.3,0.5-0.9,0.7-1.7,0.2c-1-0.6-1.9-2.1-1.9-3.3C224,71.3,224.5,70.8,225.1,70.9z"/>
					</g>
					<g>
						<path class="st2" d="M213.8,64.3c-0.1,0.2-0.2,0.5-0.2,0.8c0,1.2,0.8,2.7,1.9,3.3c0.3,0.2,0.5,0.2,0.8,0.2        c-0.3,0.5-0.9,0.7-1.7,0.2c-1-0.6-1.9-2.1-1.9-3.3C212.7,64.8,213.1,64.3,213.8,64.3z"/>
					</g>
					<g>
						<path class="st2" d="M208.6,61.3c-0.1,0.2-0.2,0.5-0.2,0.8c0,1.2,0.8,2.7,1.9,3.3c0.3,0.2,0.5,0.2,0.8,0.2        c-0.3,0.5-0.9,0.7-1.7,0.2c-1-0.6-1.9-2.1-1.9-3.3C207.5,61.8,207.9,61.3,208.6,61.3z"/>
					</g>
					<g>
						<path class="st2" d="M197.3,54.8c-0.1,0.2-0.2,0.5-0.2,0.8c0,1.2,0.8,2.7,1.9,3.3c0.3,0.2,0.5,0.2,0.8,0.2        c-0.3,0.5-0.9,0.7-1.7,0.2c-1-0.6-1.9-2.1-1.9-3.3C196.2,55.2,196.6,54.7,197.3,54.8z"/>
					</g>
					<g>
						<path class="st2" d="M192.1,51.8c-0.1,0.2-0.2,0.5-0.2,0.8c0,1.2,0.8,2.7,1.9,3.3c0.3,0.2,0.5,0.2,0.8,0.2        c-0.3,0.5-0.9,0.7-1.7,0.2c-1-0.6-1.9-2.1-1.9-3.3C191,52.2,191.4,51.7,192.1,51.8z"/>
					</g>
					<g>
						<path class="st2" d="M180.8,45.2c-0.1,0.2-0.2,0.5-0.2,0.8c0,1.2,0.8,2.7,1.9,3.3c0.3,0.2,0.5,0.2,0.8,0.2        c-0.3,0.5-0.9,0.7-1.7,0.2c-1-0.6-1.9-2.1-1.9-3.3C179.7,45.7,180.1,45.2,180.8,45.2z"/>
					</g>
					<g>
						<path class="st2" d="M175.6,42.2c-0.1,0.2-0.2,0.5-0.2,0.8c0,1.2,0.8,2.7,1.9,3.3c0.3,0.2,0.5,0.2,0.8,0.2        c-0.3,0.5-0.9,0.7-1.7,0.2c-1-0.6-1.9-2.1-1.9-3.3C174.5,42.7,174.9,42.2,175.6,42.2z"/>
					</g>
				</g>
				<g>
					<path class="st1" d="M166.3,38.5v16.9l124.3,71.8v-16.9c0-2.9-2-6.4-4.5-7.9L170.9,35.9C168.4,34.5,166.3,35.6,166.3,38.5z        M278.7,103.8c0-1.2,0.8-1.7,1.9-1.1c1,0.6,1.9,2.1,1.9,3.2c0,1.2-0.8,1.7-1.9,1.1C279.6,106.4,278.7,105,278.7,103.8z        M273.5,100.8c0-1.2,0.8-1.7,1.9-1.1c1,0.6,1.9,2.1,1.9,3.2c0,1.2-0.8,1.7-1.9,1.1C274.4,103.4,273.5,102,273.5,100.8z        M262.2,94.3c0-1.2,0.8-1.7,1.9-1.1c1,0.6,1.9,2.1,1.9,3.2c0,1.2-0.8,1.7-1.9,1.1C263.1,96.9,262.2,95.5,262.2,94.3z M257,91.3       c0-1.2,0.8-1.7,1.9-1.1c1,0.6,1.9,2.1,1.9,3.2s-0.8,1.7-1.9,1.1C257.9,93.9,257,92.5,257,91.3z M245.7,84.7       c0-1.2,0.8-1.7,1.9-1.1c1,0.6,1.9,2.1,1.9,3.2c0,1.2-0.8,1.7-1.9,1.1C246.5,87.4,245.7,85.9,245.7,84.7z M240.5,81.7       c0-1.2,0.8-1.7,1.9-1.1c1,0.6,1.9,2.1,1.9,3.2c0,1.2-0.8,1.7-1.9,1.1C241.4,84.4,240.5,82.9,240.5,81.7z M229.2,75.2       c0-1.2,0.8-1.7,1.9-1.1c1,0.6,1.9,2.1,1.9,3.2s-0.8,1.7-1.9,1.1C230,77.8,229.2,76.4,229.2,75.2z M224,72.2       c0-1.2,0.8-1.7,1.9-1.1c1,0.6,1.9,2.1,1.9,3.2c0,1.2-0.8,1.7-1.9,1.1C224.8,74.8,224,73.4,224,72.2z M212.7,65.7       c0-1.2,0.8-1.7,1.9-1.1c1,0.6,1.9,2.1,1.9,3.2c0,1.2-0.8,1.7-1.9,1.1C213.5,68.3,212.7,66.9,212.7,65.7z M207.5,62.7       c0-1.2,0.8-1.7,1.9-1.1c1,0.6,1.9,2.1,1.9,3.2c0,1.2-0.8,1.7-1.9,1.1C208.3,65.3,207.5,63.9,207.5,62.7z M196.2,56.1       c0-1.2,0.8-1.7,1.9-1.1c1,0.6,1.9,2.1,1.9,3.2c0,1.2-0.8,1.7-1.9,1.1C197,58.8,196.2,57.3,196.2,56.1z M191,53.1       c0-1.2,0.8-1.7,1.9-1.1c1,0.6,1.9,2.1,1.9,3.2c0,1.2-0.8,1.7-1.9,1.1C191.8,55.8,191,54.3,191,53.1z M179.7,46.6       c0-1.2,0.8-1.7,1.9-1.1c1,0.6,1.9,2.1,1.9,3.2c0,1.2-0.8,1.7-1.9,1.1C180.5,49.2,179.7,47.8,179.7,46.6z M174.5,43.6       c0-1.2,0.8-1.7,1.9-1.1c1,0.6,1.9,2.1,1.9,3.2c0,1.2-0.8,1.7-1.9,1.1C175.3,46.2,174.5,44.8,174.5,43.6z"/>
				</g>
				<g>
					<path class="st2" d="M185.2,60.6l86.5,49.9c0.7,0.4,1.2,0,1.2-0.9l0,0c0-0.9-0.6-2-1.2-2.4l-86.5-49.9c-0.7-0.4-1.2,0-1.2,0.9       l0,0C184,59.1,184.5,60.2,185.2,60.6z"/>
				</g>
				<g>
					<g>
						<polygon class="st1" points="183.5,89.9 192.3,95 192.3,87.5 183.5,82.4       "/>
					</g>
					<g>
						<polygon class="st1" points="197,97.7 205.8,102.8 205.8,95.3 197,90.2       "/>
					</g>
					<g>
						<polygon class="st1" points="183.5,102.1 192.3,107.2 192.3,99.7 183.5,94.6       "/>
					</g>
					<g>
						<polygon class="st1" points="197,109.9 205.8,115 205.8,107.5 197,102.4       "/>
					</g>
					<g>
						<polygon class="st5" points="210.5,117.7 219.4,122.9 219.4,115.4 210.5,110.2       "/>
					</g>
					<g>
						<polygon class="st5" points="224.1,125.6 232.9,130.7 232.9,123.2 224.1,118.1       "/>
					</g>
					<g>
						<polygon class="st5" points="237.6,133.4 246.4,138.5 246.4,131 237.6,125.9       "/>
					</g>
					<g>
						<polygon class="st5" points="251.1,141.2 260,146.3 260,138.8 251.1,133.7       "/>
					</g>
					<g>
						<polygon class="st5" points="264.6,149 273.5,154.1 273.5,146.6 264.6,141.5       "/>
					</g>
					<g>
						<polygon class="st1" points="183.5,114.4 192.3,119.5 192.3,112 183.5,106.9       "/>
					</g>
					<g>
						<polygon class="st1" points="197,122.2 205.8,127.3 205.8,119.8 197,114.7       "/>
					</g>
					<g>
						<polygon class="st5" points="210.5,130 219.4,135.1 219.4,127.6 210.5,122.5       "/>
					</g>
					<g>
						<polygon class="st5" points="224.1,137.8 232.9,142.9 232.9,135.4 224.1,130.3       "/>
					</g>
					<g>
						<polygon class="st5" points="237.6,145.6 246.4,150.7 246.4,143.2 237.6,138.1       "/>
					</g>
					<g>
						<polygon class="st5" points="251.1,153.4 260,158.5 260,151 251.1,145.9       "/>
					</g>
					<g>
						<polygon class="st5" points="264.6,161.2 273.5,166.3 273.5,158.8 264.6,153.7       "/>
					</g>
					<g>
						<polygon class="st1" points="183.5,126.6 192.3,131.7 192.3,124.2 183.5,119.1       "/>
					</g>
					<g>
						<polygon class="st1" points="197,134.4 205.8,139.5 205.8,132 197,126.9       "/>
					</g>
					<g>
						<polygon class="st5" points="210.5,142.2 219.4,147.3 219.4,139.8 210.5,134.7       "/>
					</g>
					<g>
						<polygon class="st5" points="224.1,150 232.9,155.1 232.9,147.6 224.1,142.5       "/>
					</g>
					<g>
						<polygon class="st5" points="237.6,157.8 246.4,162.9 246.4,155.4 237.6,150.3       "/>
					</g>
					<g>
						<polygon class="st5" points="251.1,165.6 260,170.8 260,163.3 251.1,158.1       "/>
					</g>
					<g>
						<polygon class="st5" points="264.6,173.5 273.5,178.6 273.5,171.1 264.6,166       "/>
					</g>
					<g>
						<polygon class="st1" points="183.5,138.8 192.3,143.9 192.3,136.4 183.5,131.3       "/>
					</g>
					<g>
						<polygon class="st1" points="197,146.6 205.8,151.7 205.8,144.2 197,139.1       "/>
					</g>
					<g>
						<polygon class="st5" points="210.5,154.4 219.4,159.5 219.4,152.1 210.5,146.9       "/>
					</g>
					<g>
						<polygon class="st5" points="224.1,162.3 232.9,167.4 232.9,159.9 224.1,154.8       "/>
					</g>
					<g>
						<polygon class="st5" points="237.6,170.1 246.4,175.2 246.4,167.7 237.6,162.6       "/>
					</g>
					<g>
						<polygon class="st5" points="251.1,177.9 260,183 260,175.5 251.1,170.4       "/>
					</g>
					<g>
						<polygon class="st5" points="264.6,185.7 273.5,190.8 273.5,183.3 264.6,178.2       "/>
					</g>
				</g>
			</g>
			<g>
				<g>
					<path class="st0" d="M272.1,97.7c0,4.1,2.9,5.8,6.5,3.7c3.6-2.1,6.5-7.1,6.5-11.2c0-4.1-2.9-5.8-6.5-3.7       C275,88.5,272.1,93.5,272.1,97.7z M273.5,96.9c0-3.2,2.3-7.2,5.1-8.8c2.8-1.6,5.1-0.3,5.1,2.9c0,3.2-2.3,7.2-5.1,8.8       C275.8,101.4,273.5,100.1,273.5,96.9z"/>
				</g>
				<g>
					<polygon class="st0" points="274.6,102.3 273.9,101.8 274.5,101.9      "/>
				</g>
				<g>
					<polygon class="st0" points="283.4,86.2 284.4,86.9 283.6,87.1      "/>
				</g>
				<g>
					<path class="st2" d="M273,98.3c0,4.1,2.9,5.8,6.5,3.7c3.6-2.1,6.5-7.1,6.5-11.2c0-4.1-2.9-5.8-6.5-3.7       C275.9,89.2,273,94.2,273,98.3z M274.4,97.5c0-3.2,2.3-7.2,5.1-8.8c2.8-1.6,5.1-0.3,5.1,2.9c0,3.2-2.3,7.2-5.1,8.8       C276.6,102.1,274.4,100.8,274.4,97.5z"/>
				</g>
			</g>
			<g>
				<polygon class="st2" points="279.7,98.9 280.7,97.8 283.5,99.4 281.7,100.3     "/>
			</g>
			<g>
				<path class="st1" d="M279.7,98.7l2.5,1.5l-1.7,1.7l-3.2,1.4c0,0,0.2-1.4-1.1-3L279.7,98.7z"/>
			</g>
			<g>
				<g>
					<path class="st0" d="M255.6,88.1c0,4.1,2.9,5.8,6.5,3.7c3.6-2.1,6.5-7.1,6.5-11.2s-2.9-5.8-6.5-3.7       C258.5,79,255.6,84,255.6,88.1z M257,87.3c0-3.2,2.3-7.2,5.1-8.8c2.8-1.6,5.1-0.3,5.1,2.9c0,3.2-2.3,7.2-5.1,8.8       C259.2,91.9,257,90.6,257,87.3z"/>
				</g>
				<g>
					<polygon class="st0" points="258.1,92.8 257.4,92.3 258,92.4      "/>
				</g>
				<g>
					<polygon class="st0" points="266.9,76.6 267.9,77.3 267,77.6      "/>
				</g>
				<g>
					<path class="st2" d="M256.5,88.8c0,4.1,2.9,5.8,6.5,3.7c3.6-2.1,6.5-7.1,6.5-11.2c0-4.1-2.9-5.8-6.5-3.7       C259.4,79.6,256.5,84.7,256.5,88.8z M257.8,88c0-3.2,2.3-7.2,5.1-8.8c2.8-1.6,5.1-0.3,5.1,2.9c0,3.2-2.3,7.2-5.1,8.8       S257.8,91.2,257.8,88z"/>
				</g>
			</g>
			<g>
				<polygon class="st2" points="263.2,89.3 264.2,88.2 266.9,89.9 265.2,90.8     "/>
			</g>
			<g>
				<path class="st1" d="M263.2,89.2l2.5,1.5l-1.7,1.7l-3.2,1.4c0,0,0.2-1.4-1.1-3L263.2,89.2z"/>
			</g>
			<g>
				<g>
					<path class="st0" d="M260.8,91.1c0,4.1,2.9,5.8,6.5,3.7c3.6-2.1,6.5-7.1,6.5-11.2c0-4.1-2.9-5.8-6.5-3.7       C263.7,82,260.8,87,260.8,91.1z M262.2,90.3c0-3.2,2.3-7.2,5.1-8.8s5.1-0.3,5.1,2.9c0,3.2-2.3,7.2-5.1,8.8       C264.4,94.9,262.2,93.6,262.2,90.3z"/>
				</g>
				<g>
					<polygon class="st0" points="263.3,95.8 262.6,95.3 263.2,95.4      "/>
				</g>
				<g>
					<polygon class="st0" points="272.1,79.6 273.1,80.3 272.2,80.6      "/>
				</g>
				<g>
					<path class="st2" d="M261.7,91.8c0,4.1,2.9,5.8,6.5,3.7c3.6-2.1,6.5-7.1,6.5-11.2c0-4.1-2.9-5.8-6.5-3.7       C264.6,82.6,261.7,87.7,261.7,91.8z M263,91c0-3.2,2.3-7.2,5.1-8.8c2.8-1.6,5.1-0.3,5.1,2.9c0,3.2-2.3,7.2-5.1,8.8       C265.3,95.6,263,94.2,263,91z"/>
				</g>
			</g>
			<g>
				<polygon class="st2" points="268.4,92.3 269.4,91.3 272.1,92.9 270.4,93.8     "/>
			</g>
			<g>
				<path class="st1" d="M268.4,92.2l2.5,1.5l-1.7,1.7l-3.2,1.4c0,0,0.2-1.4-1.1-3L268.4,92.2z"/>
			</g>
			<g>
				<g>
					<path class="st0" d="M239.1,78.6c0,4.1,2.9,5.8,6.5,3.7c3.6-2.1,6.5-7.1,6.5-11.2c0-4.1-2.9-5.8-6.5-3.7       C241.9,69.4,239.1,74.4,239.1,78.6z M240.4,77.8c0-3.2,2.3-7.2,5.1-8.8c2.8-1.6,5.1-0.3,5.1,2.9c0,3.2-2.3,7.2-5.1,8.8       C242.7,82.3,240.4,81,240.4,77.8z"/>
				</g>
				<g>
					<polygon class="st0" points="241.6,83.2 240.8,82.7 241.5,82.8      "/>
				</g>
				<g>
					<polygon class="st0" points="250.3,67.1 251.3,67.8 250.5,68      "/>
				</g>
				<g>
					<path class="st2" d="M239.9,79.2c0,4.1,2.9,5.8,6.5,3.7c3.6-2.1,6.5-7.1,6.5-11.2c0-4.1-2.9-5.8-6.5-3.7       C242.8,70.1,239.9,75.1,239.9,79.2z M241.3,78.4c0-3.2,2.3-7.2,5.1-8.8c2.8-1.6,5.1-0.3,5.1,2.9c0,3.2-2.3,7.2-5.1,8.8       S241.3,81.7,241.3,78.4z"/>
				</g>
			</g>
			<g>
				<polygon class="st2" points="246.7,79.8 247.6,78.7 250.4,80.3 248.6,81.2     "/>
			</g>
			<g>
				<path class="st1" d="M246.6,79.6l2.5,1.4l-1.7,1.7l-3.2,1.4c0,0,0.2-1.4-1.1-3L246.6,79.6z"/>
			</g>
			<g>
				<g>
					<path class="st0" d="M244.3,81.6c0,4.1,2.9,5.8,6.5,3.7c3.6-2.1,6.5-7.1,6.5-11.2c0-4.1-2.9-5.8-6.5-3.7       C247.1,72.4,244.3,77.4,244.3,81.6z M245.6,80.8c0-3.2,2.3-7.2,5.1-8.8c2.8-1.6,5.1-0.3,5.1,2.9s-2.3,7.2-5.1,8.8       C247.9,85.3,245.6,84,245.6,80.8z"/>
				</g>
				<g>
					<polygon class="st0" points="246.8,86.2 246,85.7 246.7,85.8      "/>
				</g>
				<g>
					<polygon class="st0" points="255.5,70.1 256.5,70.8 255.7,71      "/>
				</g>
				<g>
					<path class="st2" d="M245.1,82.2c0,4.1,2.9,5.8,6.5,3.7c3.6-2.1,6.5-7.1,6.5-11.2c0-4.1-2.9-5.8-6.5-3.7       C248,73.1,245.1,78.1,245.1,82.2z M246.5,81.4c0-3.2,2.3-7.2,5.1-8.8c2.8-1.6,5.1-0.3,5.1,2.9c0,3.2-2.3,7.2-5.1,8.8       C248.8,86,246.5,84.7,246.5,81.4z"/>
				</g>
			</g>
			<g>
				<polygon class="st2" points="251.9,82.8 252.8,81.7 255.6,83.3 253.8,84.2     "/>
			</g>
			<g>
				<path class="st1" d="M251.8,82.6l2.5,1.5l-1.7,1.7l-3.2,1.4c0,0,0.2-1.4-1.1-3L251.8,82.6z"/>
			</g>
			<g>
				<g>
					<path class="st0" d="M222.5,69c0,4.1,2.9,5.8,6.5,3.7c3.6-2.1,6.5-7.1,6.5-11.2c0-4.1-2.9-5.8-6.5-3.7       C225.4,59.9,222.5,64.9,222.5,69z M223.9,68.2c0-3.2,2.3-7.2,5.1-8.8c2.8-1.6,5.1-0.3,5.1,2.9s-2.3,7.2-5.1,8.8       C226.2,72.8,223.9,71.5,223.9,68.2z"/>
				</g>
				<g>
					<polygon class="st0" points="225,73.7 224.3,73.1 224.9,73.3      "/>
				</g>
				<g>
					<polygon class="st0" points="233.8,57.5 234.8,58.2 234,58.5      "/>
				</g>
				<g>
					<path class="st2" d="M223.4,69.7c0,4.1,2.9,5.8,6.5,3.7c3.6-2.1,6.5-7.1,6.5-11.2s-2.9-5.8-6.5-3.7       C226.3,60.5,223.4,65.5,223.4,69.7z M224.8,68.9c0-3.2,2.3-7.2,5.1-8.8c2.8-1.6,5.1-0.3,5.1,2.9c0,3.2-2.3,7.2-5.1,8.8       C227.1,73.4,224.8,72.1,224.8,68.9z"/>
				</g>
			</g>
			<g>
				<polygon class="st2" points="230.1,70.2 231.1,69.2 233.8,70.8 232.1,71.6     "/>
			</g>
			<g>
				<path class="st1" d="M230.1,70.1l2.6,1.5l-1.7,1.7l-3.2,1.4c0,0,0.2-1.4-1.2-2.9L230.1,70.1z"/>
			</g>
			<g>
				<g>
					<path class="st0" d="M227.7,72c0,4.1,2.9,5.8,6.5,3.7c3.6-2.1,6.5-7.1,6.5-11.2c0-4.1-2.9-5.8-6.5-3.7       C230.6,62.9,227.7,67.9,227.7,72z M229.1,71.2c0-3.2,2.3-7.2,5.1-8.8c2.8-1.6,5.1-0.3,5.1,2.9c0,3.2-2.3,7.2-5.1,8.8       C231.4,75.8,229.1,74.5,229.1,71.2z"/>
				</g>
				<g>
					<polygon class="st0" points="230.2,76.7 229.5,76.1 230.1,76.3      "/>
				</g>
				<g>
					<polygon class="st0" points="239,60.5 240,61.2 239.2,61.5      "/>
				</g>
				<g>
					<path class="st2" d="M228.6,72.7c0,4.1,2.9,5.8,6.5,3.7c3.6-2.1,6.5-7.1,6.5-11.2c0-4.1-2.9-5.8-6.5-3.7       C231.5,63.5,228.6,68.5,228.6,72.7z M230,71.9c0-3.2,2.3-7.2,5.1-8.8s5.1-0.3,5.1,2.9c0,3.2-2.3,7.2-5.1,8.8       C232.3,76.4,230,75.1,230,71.9z"/>
				</g>
			</g>
			<g>
				<polygon class="st2" points="235.3,73.2 236.3,72.2 239.1,73.8 237.3,74.6     "/>
			</g>
			<g>
				<path class="st1" d="M235.3,73.1l2.5,1.5l-1.7,1.7l-3.2,1.4c0,0,0.2-1.4-1.1-3L235.3,73.1z"/>
			</g>
			<g>
				<g>
					<path class="st0" d="M206,59.4c0,4.1,2.9,5.8,6.5,3.7c3.6-2.1,6.5-7.1,6.5-11.2c0-4.1-2.9-5.8-6.5-3.7       C208.9,50.3,206,55.3,206,59.4z M207.4,58.6c0-3.2,2.3-7.2,5.1-8.8c2.8-1.6,5.1-0.3,5.1,2.9c0,3.2-2.3,7.2-5.1,8.8       C209.7,63.2,207.4,61.9,207.4,58.6z"/>
				</g>
				<g>
					<polygon class="st0" points="208.5,64.1 207.8,63.6 208.4,63.7      "/>
				</g>
				<g>
					<polygon class="st0" points="217.3,47.9 218.3,48.7 217.5,48.9      "/>
				</g>
				<g>
					<path class="st2" d="M206.9,60.1c0,4.1,2.9,5.8,6.5,3.7c3.6-2.1,6.5-7.1,6.5-11.2c0-4.1-2.9-5.8-6.5-3.7       C209.8,50.9,206.9,56,206.9,60.1z M208.3,59.3c0-3.2,2.3-7.2,5.1-8.8c2.8-1.6,5.1-0.3,5.1,2.9s-2.3,7.2-5.1,8.8       C210.6,63.9,208.3,62.5,208.3,59.3z"/>
				</g>
			</g>
			<g>
				<polygon class="st2" points="213.6,60.6 214.5,59.6 217.3,61.2 215.6,62.1     "/>
			</g>
			<g>
				<path class="st1" d="M213.5,60.5l2.6,1.5l-1.7,1.6l-3.1,1.4c0,0,0.1-1.3-1.2-2.9L213.5,60.5z"/>
			</g>
			<g>
				<g>
					<path class="st0" d="M211.2,62.4c0,4.1,2.9,5.8,6.5,3.7c3.6-2.1,6.5-7.1,6.5-11.2c0-4.1-2.9-5.8-6.5-3.7       C214.1,53.3,211.2,58.3,211.2,62.4z M212.6,61.6c0-3.2,2.3-7.2,5.1-8.8c2.8-1.6,5.1-0.3,5.1,2.9c0,3.2-2.3,7.2-5.1,8.8       C214.9,66.2,212.6,64.9,212.6,61.6z"/>
				</g>
				<g>
					<polygon class="st0" points="213.7,67.1 213,66.6 213.6,66.7      "/>
				</g>
				<g>
					<polygon class="st0" points="222.5,50.9 223.5,51.7 222.7,51.9      "/>
				</g>
				<g>
					<path class="st2" d="M212.1,63.1c0,4.1,2.9,5.8,6.5,3.7s6.5-7.1,6.5-11.2s-2.9-5.8-6.5-3.7C215,53.9,212.1,59,212.1,63.1z        M213.5,62.3c0-3.2,2.3-7.2,5.1-8.8c2.8-1.6,5.1-0.3,5.1,2.9c0,3.2-2.3,7.2-5.1,8.8C215.8,66.9,213.5,65.5,213.5,62.3z"/>
				</g>
			</g>
			<g>
				<polygon class="st2" points="218.8,63.6 219.7,62.6 222.5,64.2 220.8,65.1     "/>
			</g>
			<g>
				<path class="st1" d="M218.7,63.5l2.6,1.5l-1.7,1.7l-3.1,1.4c0,0,0.1-1.4-1.2-2.9L218.7,63.5z"/>
			</g>
			<g>
				<g>
					<path class="st0" d="M189.5,49.9c0,4.1,2.9,5.8,6.5,3.7c3.6-2.1,6.5-7.1,6.5-11.2s-2.9-5.8-6.5-3.7       C192.4,40.7,189.5,45.7,189.5,49.9z M190.9,49.1c0-3.2,2.3-7.2,5.1-8.8c2.8-1.6,5.1-0.3,5.1,2.9c0,3.2-2.3,7.2-5.1,8.8       C193.1,53.6,190.9,52.3,190.9,49.1z"/>
				</g>
				<g>
					<polygon class="st0" points="192,54.5 191.3,54 191.9,54.2      "/>
				</g>
				<g>
					<polygon class="st0" points="200.8,38.4 201.8,39.1 200.9,39.3      "/>
				</g>
				<g>
					<path class="st2" d="M190.4,50.5c0,4.1,2.9,5.8,6.5,3.7c3.6-2.1,6.5-7.1,6.5-11.2c0-4.1-2.9-5.8-6.5-3.7       C193.3,41.4,190.4,46.4,190.4,50.5z M191.8,49.7c0-3.2,2.3-7.2,5.1-8.8c2.8-1.6,5.1-0.3,5.1,2.9c0,3.2-2.3,7.2-5.1,8.8       C194,54.3,191.8,53,191.8,49.7z"/>
				</g>
			</g>
			<g>
				<polygon class="st2" points="197.1,51.1 198,50.1 200.8,51.6 199.1,52.5     "/>
			</g>
			<g>
				<path class="st1" d="M197,51l2.6,1.5l-1.7,1.6l-3.1,1.4c0,0,0.2-1.4-1.2-2.9L197,51z"/>
			</g>
			<g>
				<g>
					<path class="st0" d="M194.7,52.9c0,4.1,2.9,5.8,6.5,3.7c3.6-2.1,6.5-7.1,6.5-11.2c0-4.1-2.9-5.8-6.5-3.7       C197.6,43.7,194.7,48.8,194.7,52.9z M196.1,52.1c0-3.2,2.3-7.2,5.1-8.8c2.8-1.6,5.1-0.3,5.1,2.9c0,3.2-2.3,7.2-5.1,8.8       C198.3,56.6,196.1,55.3,196.1,52.1z"/>
				</g>
				<g>
					<polygon class="st0" points="197.2,57.5 196.5,57 197.1,57.2      "/>
				</g>
				<g>
					<polygon class="st0" points="206,41.4 207,42.1 206.1,42.3      "/>
				</g>
				<g>
					<path class="st2" d="M195.6,53.5c0,4.1,2.9,5.8,6.5,3.7c3.6-2.1,6.5-7.1,6.5-11.2c0-4.1-2.9-5.8-6.5-3.7       C198.5,44.4,195.6,49.4,195.6,53.5z M197,52.7c0-3.2,2.3-7.2,5.1-8.8c2.8-1.6,5.1-0.3,5.1,2.9c0,3.2-2.3,7.2-5.1,8.8       C199.2,57.3,197,56,197,52.7z"/>
				</g>
			</g>
			<g>
				<polygon class="st2" points="202.3,54.1 203.2,53.1 206,54.7 204.3,55.5     "/>
			</g>
			<g>
				<path class="st1" d="M202.2,54l2.5,1.5l-1.7,1.6l-3.1,1.4c0,0,0.2-1.4-1.2-2.9L202.2,54z"/>
			</g>
			<g>
				<g>
					<path class="st0" d="M173,40.3c0,4.1,2.9,5.8,6.5,3.7c3.6-2.1,6.5-7.1,6.5-11.2s-2.9-5.8-6.5-3.7C175.9,31.2,173,36.2,173,40.3       z M174.3,39.5c0-3.2,2.3-7.2,5.1-8.8c2.8-1.6,5.1-0.3,5.1,2.9c0,3.2-2.3,7.2-5.1,8.8C176.6,44.1,174.3,42.8,174.3,39.5z"/>
				</g>
				<g>
					<polygon class="st0" points="175.5,45 174.8,44.4 175.4,44.6      "/>
				</g>
				<g>
					<polygon class="st0" points="184.3,28.8 185.2,29.5 184.4,29.8      "/>
				</g>
				<g>
					<path class="st2" d="M173.9,41c0,4.1,2.9,5.8,6.5,3.7c3.6-2.1,6.5-7.1,6.5-11.2c0-4.1-2.9-5.8-6.5-3.7S173.9,36.8,173.9,41z        M175.2,40.2c0-3.2,2.3-7.2,5.1-8.8c2.8-1.6,5.1-0.3,5.1,2.9c0,3.2-2.3,7.2-5.1,8.8C177.5,44.7,175.2,43.4,175.2,40.2z"/>
				</g>
			</g>
			<g>
				<polygon class="st2" points="180.6,41.5 181.5,40.5 184.2,42.1 182.5,42.9     "/>
			</g>
			<g>
				<path class="st1" d="M180.4,41.4l2.5,1.5l-1.6,1.6l-3.1,1.4c0,0,0.1-1.4-1.2-2.9L180.4,41.4z"/>
			</g>
			<g>
				<g>
					<path class="st0" d="M178.2,43.3c0,4.1,2.9,5.8,6.5,3.7c3.6-2.1,6.5-7.1,6.5-11.2c0-4.1-2.9-5.8-6.5-3.7       C181.1,34.2,178.2,39.2,178.2,43.3z M179.5,42.5c0-3.2,2.3-7.2,5.1-8.8c2.8-1.6,5.1-0.3,5.1,2.9c0,3.2-2.3,7.2-5.1,8.8       C181.8,47.1,179.5,45.8,179.5,42.5z"/>
				</g>
				<g>
					<polygon class="st0" points="180.7,48 180,47.4 180.6,47.6      "/>
				</g>
				<g>
					<polygon class="st0" points="189.5,31.8 190.4,32.5 189.6,32.8      "/>
				</g>
				<g>
					<path class="st2" d="M179.1,44c0,4.1,2.9,5.8,6.5,3.7c3.6-2.1,6.5-7.1,6.5-11.2c0-4.1-2.9-5.8-6.5-3.7       C181.9,34.8,179.1,39.8,179.1,44z M180.4,43.2c0-3.2,2.3-7.2,5.1-8.8c2.8-1.6,5.1-0.3,5.1,2.9c0,3.2-2.3,7.2-5.1,8.8       C182.7,47.7,180.4,46.4,180.4,43.2z"/>
				</g>
			</g>
			<g>
				<polygon class="st2" points="185.8,44.5 186.7,43.5 189.4,45.1 187.7,45.9     "/>
			</g>
			<g>
				<path class="st1" d="M185.6,44.4l2.6,1.5l-1.6,1.6l-3.1,1.4c0,0,0.1-1.4-1.2-3L185.6,44.4z"/>
			</g>
			<g>
				<g>
					<path class="st0" d="M277.3,100.7c0,4.1,2.9,5.8,6.5,3.7c3.6-2.1,6.5-7.1,6.5-11.2c0-4.1-2.9-5.8-6.5-3.7       C280.2,91.5,277.3,96.5,277.3,100.7z M278.7,99.9c0-3.2,2.3-7.2,5.1-8.8c2.8-1.6,5.1-0.3,5.1,2.9c0,3.2-2.3,7.2-5.1,8.8       C280.9,104.4,278.7,103.1,278.7,99.9z"/>
				</g>
				<g>
					<polygon class="st0" points="279.8,105.3 279.1,104.8 279.7,104.9      "/>
				</g>
				<g>
					<polygon class="st0" points="288.6,89.2 289.6,89.9 288.8,90.1      "/>
				</g>
				<g>
					<path class="st2" d="M278.2,101.3c0,4.1,2.9,5.8,6.5,3.7c3.6-2.1,6.5-7.1,6.5-11.2c0-4.1-2.9-5.8-6.5-3.7       C281.1,92.2,278.2,97.2,278.2,101.3z M279.6,100.5c0-3.2,2.3-7.2,5.1-8.8c2.8-1.6,5.1-0.3,5.1,2.9s-2.3,7.2-5.1,8.8       C281.8,105.1,279.6,103.8,279.6,100.5z"/>
				</g>
			</g>
			<g>
				<polygon class="st2" points="290.6,127.2 291.9,126.4 291.9,124.2 290.6,125.1     "/>
			</g>
			<g>
				<path class="st2" d="M284.9,101.9l1-1.1c0,0,2,1.1,2.7,1.7l-1.7,0.8L284.9,101.9z"/>
			</g>
			<g>
				<path class="st1" d="M284.9,101.7c0,0,2.1,1.1,3.1,2.2c1,1.2-5.5,2.3-5.5,2.3s0.2-1.4-1.1-3L284.9,101.7z"/>
			</g>
		</g>
	</g>
</g>
<g>
	<g>
		<g>
			<path class="st0" d="M79.4,161c-0.6-0.4-1.4-0.7-2.1-1l0,0l-4-1.8l0.3,0.7c-3-0.6-6.3-0.6-9.4-0.1l0.2-0.8l-4.7,2.1l0,0     c-0.6,0.3-1.2,0.5-1.8,0.9c-5.9,3.4-5.9,8.9,0,12.3s15.5,3.4,21.4,0C85.3,169.9,85.3,164.4,79.4,161z"/>
			<path class="st1" d="M73.7,164.2c-2.8,1.6-7.3,1.6-10,0c-2.8-1.6-2.8-4.2,0-5.8c2.8-1.6,7.3-1.6,10,0     C76.5,160,76.5,162.6,73.7,164.2z"/>
		</g>
		<g>
			<path class="st1" d="M68.7,162.4L68.7,162.4c-1.3,0-2.4-1.1-2.4-2.4v-30.5h4.8V160C71.1,161.4,70.1,162.4,68.7,162.4z"/>
			<path class="st1" d="M70.4,130.7c-1,0.6-2.5,0.6-3.5,0c-1-0.6-1-1.5,0-2c1-0.6,2.5-0.6,3.5,0S71.4,130.1,70.4,130.7z"/>
		</g>
		<path class="st0" d="M68.7,130.6L68.7,130.6c-1.1,0-2-0.9-2-2V100h3.9v28.6C70.7,129.7,69.8,130.6,68.7,130.6z"/>
		<g>
			<path class="st2" d="M96.8,115l0-1.1l1.6-0.2l1.8-1.3c0.3-0.2,0.8-0.2,1.2,0l1.3,0.8l1.3-0.2v1.1l0,0c0,0.1-0.1,0.3-0.3,0.3     l-4.1,1.8c-0.3,0.1-0.8,0.1-1.1,0l-1.4-0.8C96.9,115.3,96.8,115.2,96.8,115L96.8,115z"/>
			<path class="st1" d="M97,113.6l3.2-2.4c0.3-0.2,0.8-0.2,1.2,0l2.4,1.4c0.3,0.2,0.3,0.5-0.1,0.7l-4.1,1.8c-0.3,0.1-0.8,0.1-1.1,0     l-1.4-0.8C96.8,114.1,96.7,113.8,97,113.6z"/>
			<g>
				<path class="st0" d="M91.6,119c0.5,0,0.9-0.1,1.3-0.3l5-2.9c0.3-0.2,0.4-0.5,0.2-0.8c-0.2-0.3-0.5-0.4-0.8-0.2l-4.9,2.9      c-0.4,0.2-1,0.2-1.4,0l-8.2-4.8c-0.3-0.2-0.6-0.1-0.8,0.2c-0.2,0.3-0.1,0.6,0.2,0.8l8.2,4.8C90.7,118.9,91.2,119,91.6,119z"/>
			</g>
		</g>
		<g>
			<radialGradient id="SVGID_1_" cx="-8.5637" cy="102.6281" r="49.07" gradientUnits="userSpaceOnUse">
				<stop offset="0" style="stop-color:#01C8EF"/>
				<stop offset="8.940536e-02" style="stop-color:#03BEE9"/>
				<stop offset="0.2388" style="stop-color:#08A5D7"/>
				<stop offset="0.4288" style="stop-color:#107BBB"/>
				<stop offset="0.4457" style="stop-color:#1177B8"/>
				<stop offset="1" style="stop-color:#112564"/>
			</radialGradient>
			<polygon class="st9" points="44,108.5 52,103.9 47.5,101.9 43.7,104.6    "/>
			<path class="st1" d="M95.1,101.7c-0.4-0.2-0.9-0.5-1.3-0.8L76.8,88.4c-3.1-2.2-6.2-2.8-8.6-1.6c-0.1,0-0.1,0.1-0.2,0.1l0,0     l-23.4,13.6l2.1,0.7l8.2,3.7l11.1,7.9l8.8,4.7l0.4,0.1c2.1-1.7,4.3-3.2,5.6-5.7c2.2-3.8,8.2-4.9,11.8-8c0.4,0.2,0.7,0.4,1.1,0.6     C94.4,103.8,94.6,102.8,95.1,101.7z"/>
			<path class="st2" d="M102.5,96.1c-0.4,0-0.7,0.1-1,0.3l0,0l-22.9,13.3l0.8,3.4l0.9-0.4c-1.3,2-3.3,3.4-5.1,4.9l2.6,0.5l22.4-13     c0.1,0,0.2-0.1,0.3-0.1c0.3-0.2,0.6-0.3,0.9-0.5l0,0l0,0c1.7-1.3,2.7-3.6,2.7-6.5v-0.3C104.1,96.8,103.4,96.1,102.5,96.1z"/>
			<g>
				<path class="st10" d="M71.1,86.2c1.4,0.1,3,0.5,4.5,1.5C74.1,86.8,72.6,86.3,71.1,86.2z"/>
				<path class="st1" d="M81.6,110.7v-0.3c0-0.9-0.7-1.6-1.6-1.6c-0.9,0-1.6,0.7-1.6,1.6v0.3c0,2.1-0.7,3.6-1.8,4.2      c-1.3,0.7-3.3,0.2-5.4-1.3l-16.9-12.4c-2.6-1.9-5.3-2.6-7.5-2l14-8.1l-16.2,9.4l2.1,0.7l8.2,3.7l11.1,7.9l8.8,4.7l0.4,0.1      c2.1-1.7,4.3-3.2,5.6-5.7C81,111.5,81.3,111.2,81.6,110.7C81.6,110.8,81.6,110.8,81.6,110.7z"/>
			</g>
			<g>
				<path class="st0" d="M74.8,118.9c-1.9,0-3.9-0.8-5.9-2.2l-16.9-12.4c-2-1.5-4-2-5.4-1.3c-1.2,0.6-1.8,2.1-1.8,4.2      c0,0.9-0.7,1.6-1.6,1.6s-1.6-0.7-1.6-1.6c0-3.3,1.3-5.9,3.6-7c2.4-1.2,5.6-0.7,8.6,1.6l16.9,12.4c2,1.5,4,2,5.4,1.3      c1.2-0.6,1.8-2.1,1.8-4.2V111c0-0.9,0.7-1.6,1.6-1.6s1.6,0.7,1.6,1.6v0.3c0,3.3-1.3,5.9-3.6,7C76.7,118.7,75.8,118.9,74.8,118.9      z"/>
			</g>
		</g>
	</g>
	<g>
		<g>
			<path class="st3" d="M61.5,146.7c0,0-3.2-1.6-5.1,0.8c-2,2.4-4.8,8.1-4.8,11.9c-0.1,3.8,3,3.6,4.9,2.7c1.8-0.9,7.3-8.7,7.6-10.3     c0.3-1.5-0.4-3.6-0.9-4C62.5,147.3,61.5,146.7,61.5,146.7z"/>
			<path class="st1" d="M62.2,145.9l0.1,3.3c0,0.7-0.3,1.4-0.9,1.7c-0.6,0.3-1.4,0.6-2.5,0.4c-2.4-0.4-2.6-1.1-2.8-4.4     C55.9,143.6,62.2,145.9,62.2,145.9z"/>
			<g>
				<path class="st3" d="M49.8,140.3c0,0-3.2-1.6-5.1,0.8c-2,2.4-4.8,8.1-4.8,11.9c-0.1,3.8,3,3.6,4.9,2.7c1.8-0.9,7.3-8.7,7.6-10.3      c0.3-1.5-0.4-3.6-0.9-4C50.8,140.9,49.8,140.3,49.8,140.3z"/>
				<path class="st1" d="M50.5,139.6l0.1,3.3c0,0.7-0.3,1.4-0.9,1.7c-0.6,0.3-1.4,0.6-2.5,0.4c-2.4-0.4-2.6-1.1-2.8-4.4      C44.3,137.3,50.5,139.6,50.5,139.6z"/>
				<path class="st0" d="M78.9,78.9c-0.9-15.4-16.6,2.3-16.6,2.3L51.6,91.7l-9.7,10.6c-1.9,2.1-2.8,4.9-2.4,7.7l3.9,29.8      c0.2,1.5,1.5,2.6,2.9,2.5c0.4,0,0.9,0,1.4-0.1c3.5-0.5,3.2-3.9,3.2-3.9l-0.7-27.9l20.3-12.2C70.6,98.2,79.9,94.2,78.9,78.9z"/>
			</g>
			<path class="st0" d="M90.6,84.7C89.7,69.4,74,87,74,87L63.2,97.5l-9.7,10.6c-1.9,2.1-2.8,4.9-2.4,7.7l3.9,29.8     c0.2,1.5,1.5,2.6,2.9,2.5c0.4,0,0.9,0,1.4-0.1c3.5-0.5,3.2-3.9,3.2-3.9L62,116.3L82.3,104C82.3,104,91.6,100.1,90.6,84.7z"/>
			<path class="st1" d="M81.3,35.4c11.9,4.9,11.7,12,11.7,12s-2.3,25.8-1.5,43c0.3,7.2-38.2,7.7-32.5-11.5c6.8-22.6,4.2-41,7.4-43.7     C69.6,32.4,78.3,34.1,81.3,35.4z"/>
			<path class="st11" d="M85.2,41.6c-0.6,2.4-3.8,3.7-7.1,2.8c-3.3-0.8-5.4-3.5-4.8-5.9c0.6-2.4,3.8-3.7,7.1-2.8     C83.6,36.6,85.8,39.2,85.2,41.6z"/>
			<path class="st5" d="M80.1,45.3c-0.7,0-1.4-0.1-2.2-0.3c-1.7-0.4-3.2-1.3-4.2-2.6c-1-1.3-1.4-2.7-1.1-4c0.7-2.7,4.2-4.2,7.8-3.3     c3.6,0.9,5.9,3.9,5.2,6.6l0,0C85.2,44,82.8,45.3,80.1,45.3z M78.3,36c-2.2,0-4.1,1-4.5,2.7c-0.3,1,0,2.1,0.8,3     c0.8,1,2.1,1.8,3.6,2.2c3,0.8,5.8-0.3,6.4-2.4c0.5-2.1-1.4-4.4-4.4-5.2C79.6,36.1,78.9,36,78.3,36z"/>
			<path class="st11" d="M76.6,34.9c0,0,0.1,0.5-0.1,4.2c-0.1,1.2,4.1,2.3,5.2,1.2c1.1-1.1,0.6-2.2,0.9-6.2     C82.8,30.1,76.6,34.9,76.6,34.9z"/>
			<path class="st12" d="M82.5,34.1c0,0-1,3.7-6.1,5.2l0.1-3.4L82.5,34.1z"/>
			
				<ellipse transform="matrix(0.5133 -0.8582 0.8582 0.5133 14.3108 79.0513)" class="st11" cx="76.8" cy="26.9" rx="9.2" ry="9.2"/>
			<path class="st12" d="M79,27.2c0,0-5,2.2-8.5,2.2c-3.5,0-2.7-2.9-2.7-2.9L78.1,25L79,27.2z"/>
			<path class="st6" d="M69.4,27.8c0,0,4.4-1.9,8.2-1.1c0.9,0.2,1.7,0.7,2.3,1.4c0.2,0.2,0.4,0.4,0.7,0.5c0.7,0.2,1.8-2.7,3.1-2.7     c1.3-0.1,2.2,0.9,1.1,2.6c-1.1,1.7-0.7,3.7-0.2,4c0.5,0.3,5.8-3.8,1.1-13.1c-4.7-9.3-16.6-4.3-18.4-2.4c0,0-2,1.7-3.5,0.2     C63.8,17.2,62.1,30.5,69.4,27.8z"/>
			<path class="st11" d="M86.3,66.2v7c0,0.8-0.3,1.6-0.9,2.1l-14.3,13l1.6,2.5l18.9-13.7c0.9-0.6,1.5-1.6,1.6-2.7l1.3-12.2     L86.3,66.2z"/>
			<path class="st1" d="M92,43.9c0,0,4.3,6.5,6,23.7c0,0-7.4,2.4-11.6,1C82.1,67.3,92,43.9,92,43.9z"/>
			<path class="st2" d="M85.5,52.2c0,0-1.7,9.1-1.8,13.4c0,1.2,0.7,2.2,1.8,2.6l0,0V52.2z"/>
		</g>
		<g>
			<path class="st3" d="M81.8,97.4L78.7,97L58.2,85.2c-0.7-0.4-1.8-0.3-2.6,0.1l-14.5,8.4l-1.9-0.3v1.9l0,0c0,0.3,0.1,0.5,0.4,0.7     l23.1,13.4c0.7,0.4,1.8,0.3,2.6-0.1l15.8-9.1c0.4-0.2,0.6-0.6,0.6-0.9l0,0V97.4z"/>
			<path class="st2" d="M66.5,89.9L65,89.1h-16l-7.9,4.5l-1.9-0.3v1.9l0,0c0,0.3,0.1,0.5,0.4,0.7l23.1,13.4c0.3,0.2,0.8,0.3,1.3,0.2     L66.5,89.9z"/>
			<path class="st1" d="M40.1,93.5l-0.8-0.1v1.9l0,0c0,0.3,0.1,0.5,0.4,0.7l0.4,0.2V93.5z"/>
			<path class="st4" d="M63.1,109.4c0.6,0.2,1.5,0.2,2.2-0.1v-3.2h-2.2V109.4z"/>
			<path class="st5" d="M62.9,107.4L39.7,94.1c-0.7-0.4-0.6-1,0.2-1.5l15.8-9.1c0.8-0.4,1.9-0.5,2.6-0.1l23.1,13.4     c0.7,0.4,0.6,1-0.2,1.5l-15.8,9.1C64.7,107.8,63.5,107.8,62.9,107.4z"/>
			<path class="st0" d="M62.5,105.4L43.2,94.3c-0.5-0.3-0.5-0.9,0.2-1.2l8.4-4.7c0.6-0.4,1.6-0.4,2.1-0.1l19.2,11.1     c0.5,0.3,0.5,0.9-0.2,1.2l-8.4,4.7C64,105.7,63,105.7,62.5,105.4z"/>
		</g>
		<path class="st11" d="M56.6,83.1l-0.2,1.6c-0.2,1.4-0.2,2.7,0.1,4.1l0.3,1.4c0.2,0.8,0.8,1.4,1.6,1.6l0,0c0.6,0.1,1.2-0.3,1.3-1    l0.4-3.4c0,0,0.9,1.1,1.3,1.1c0.4,0-0.5-3.4-1.4-5.4C58.9,81.2,56.6,83.1,56.6,83.1z"/>
		<path class="st11" d="M64.4,57.7l-2.5,4.9c-0.6,1.2-0.9,2.4-1,3.7l-1.1,16.8l-3.3-0.1l-1.5-18.9c0-0.6,0-1.2,0.1-1.7l1.7-9.6    L64.4,57.7z"/>
		<g>
			<path class="st3" d="M62.1,108.7l-1.9-2.5L39.7,94.4c-0.7-0.4-1.2-1.4-1.2-2.3l0-16.7l-1.2-1.5l1.1-0.6l0,0     c0.2-0.1,0.5-0.1,0.8,0l23.1,13.4c0.7,0.4,1.2,1.4,1.2,2.3l0,18.2c0,0.5-0.2,0.8-0.4,1l0,0L62.1,108.7z"/>
			<path class="st2" d="M48,99.1l-1.4-0.8l-8-13.8l0-9.1l-1.2-1.5l1.1-0.6l0,0c0.2-0.1,0.5-0.1,0.8,0l23.1,13.4     c0.3,0.2,0.7,0.6,0.9,1L48,99.1z"/>
			<path class="st1" d="M37.9,74.5l-0.5-0.7l1.1-0.6l0,0c0.2-0.1,0.5-0.1,0.8,0l0.4,0.2L37.9,74.5z"/>
			<path class="st4" d="M62.7,86.8c0.5,0.4,0.9,1.2,1,1.9l-2.3,1.3l-1.1-1.9L62.7,86.8z"/>
			<path class="st1" d="M61.3,87.3L38.2,73.9c-0.7-0.4-1.2,0-1.2,0.9L37,93c0,0.9,0.5,1.9,1.2,2.3l23.1,13.4c0.7,0.4,1.2,0,1.2-0.9     l0-18.2C62.5,88.7,62,87.7,61.3,87.3z"/>
		</g>
		<path class="st11" d="M72.7,90.8l-0.4,0.8c-0.4,0.9-1.1,1.6-1.9,2.1l-2.3,1.4c-0.7,0.4-1.6,0.5-2.3,0.1c0,0-0.1,0-0.1,0    c-0.7-0.5-0.8-1.5-0.2-2.1l2.4-2.5c0,0-1.3,1-1.7,0.6c-0.3-0.3,1.3-1.8,2.5-1.8c1.2,0,2.4-1,2.4-1L72.7,90.8z"/>
		<path class="st1" d="M66.6,35.1c0,0-8.8,9.6-12.4,18.4c0,0,3,5.4,10.4,7.5C72,63.2,66.6,35.1,66.6,35.1z"/>
		<path class="st2" d="M63,60.5l1.4-13.8l-3.4,12.9C61.7,59.9,62.3,60.2,63,60.5z"/>
		<path class="st5" d="M73.2,33.2l-2.4-0.6c0,0,1.1,1.8,2.8,2.2c1.6,0.5,1.9-0.9,1.9-0.9L73.2,33.2z"/>
	</g>
</g>
<path class="st1" d="M268.5,205.6c-0.1,0-0.2,0-0.3-0.1l-87.6-50.6c-0.3-0.2-0.4-0.6-0.2-0.9c0.2-0.3,0.6-0.4,0.9-0.2l87.6,50.6  c0.3,0.2,0.4,0.6,0.2,0.9C268.9,205.5,268.7,205.6,268.5,205.6z"/>
<g>
	<polygon class="st0" points="48.2,243.9 57,249.2 50.4,252.8 41.6,247.6  "/>
</g>
<g>
	<polygon class="st0" points="70,258.3 78.8,263.5 72.3,267.1 63.5,261.9  "/>
</g>
<g>
	<polygon class="st6" points="89.3,270.5 98.1,275.7 91.6,279.4 82.8,274.2  "/>
</g>
<g>
	<polygon class="st6" points="142.3,137.5 151.1,142.7 144.6,146.4 135.8,141.1  "/>
</g>
<g>
	<polygon class="st1" points="137.7,69.2 146.5,74.4 139.9,78.1 131.1,72.9  "/>
</g>
<g>
	<polygon class="st1" points="23,105.8 31.8,111 25.3,114.7 16.5,109.5  "/>
</g>
<g>
	<polygon class="st1" points="180.7,170.7 189.4,175.9 182.9,179.6 174.1,174.4  "/>
</g>
<g>
	<polygon class="st0" points="152,100.4 160.8,105.6 154.3,109.3 145.5,104.1  "/>
</g>
<g>
	<polygon class="st0" points="84,135.8 92.8,141 86.3,144.7 77.5,139.5  "/>
</g>
<g>
	<polygon class="st1" points="302.4,89.9 311.2,95.1 304.7,98.7 295.9,93.5  "/>
</g>
<g>
	<polygon class="st0" points="248.1,207.3 256.9,212.5 250.4,216.2 241.6,211  "/>
</g>
<g>
	<polygon class="st0" points="111.9,282.9 120.7,288.1 114.2,291.8 105.4,286.6  "/>
</g>
<g>
	<polygon class="st1" points="76.4,282.9 85.2,288.1 78.6,291.8 69.8,286.6  "/>
</g>
<g>
	<polygon class="st0" points="102,294.4 110.8,299.6 104.2,303.3 95.4,298.1  "/>
</g>
<g>
	<polygon class="st1" points="132.2,295.3 141,300.5 134.5,304.2 125.7,299  "/>
</g>
<g>
	<polygon class="st0" points="152.8,308 161.6,313.2 155.1,316.9 146.3,311.7  "/>
</g>
<g>
	<polygon class="st6" points="280.5,237.5 289.2,242.7 282.7,246.4 273.9,241.2  "/>
</g>
<g>
	<polygon class="st0" points="50.9,266 59.7,271.3 53.2,274.9 44.4,269.7  "/>
</g>
<g>
	<g>
		<path class="st13" d="M48,188.2L28,176.6c-0.4-0.2-0.8-0.2-1-0.1c0,0,0,0,0,0l-1.9,1.1c0,0,0.9,0.3,1.4,0.5v14.6    c0,1.2,0.7,2.6,1.6,3.1l19.2,11.1v1.7l2-1.1l0,0c0.3-0.2,0.5-0.6,0.5-1.3v-14.9C49.7,190.1,48.9,188.7,48,188.2z"/>
		<path class="st6" d="M46.1,208.6L26,197c-0.9-0.5-1.6-1.9-1.6-3.1V179c0-1.2,0.7-1.7,1.6-1.2l20.1,11.6c0.9,0.5,1.6,1.9,1.6,3.1    v14.9C47.7,208.6,46.9,209.1,46.1,208.6z"/>
	</g>
	<g>
		<path class="st5" d="M32.7,191.8c0,0.9-0.6,1.2-1.4,0.8c-0.7-0.4-1.4-1.5-1.4-2.3c0-0.9,0.6-1.2,1.4-0.8    C32.1,189.9,32.7,191,32.7,191.8z"/>
		<path class="st5" d="M36.8,194.2c0,0.9-0.6,1.2-1.4,0.8c-0.7-0.4-1.4-1.5-1.4-2.3c0-0.9,0.6-1.2,1.4-0.8    C36.2,192.3,36.8,193.4,36.8,194.2z"/>
		<path class="st5" d="M40.9,196.6c0,0.9-0.6,1.2-1.4,0.8c-0.7-0.4-1.4-1.5-1.4-2.3c0-0.9,0.6-1.2,1.4-0.8    C40.3,194.7,40.9,195.7,40.9,196.6z"/>
	</g>
</g>
<g>
	<g>
		<path class="st1" d="M273.9,43.4l-20.1-11.6c-0.4-0.2-0.8-0.2-1-0.1c0,0,0,0,0,0l-1.9,1.1c0,0,0.9,0.3,1.4,0.5V48    c0,1.2,0.7,2.6,1.6,3.1L273,62.1v1.7l2-1.1l0,0c0.3-0.2,0.5-0.6,0.5-1.3V46.5C275.5,45.3,274.8,43.9,273.9,43.4z"/>
		<path class="st0" d="M271.9,63.8l-20.1-11.6c-0.9-0.5-1.6-1.9-1.6-3.1V34.2c0-1.2,0.7-1.7,1.6-1.2l20.1,11.6    c0.9,0.5,1.6,1.9,1.6,3.1v14.9C273.5,63.7,272.8,64.3,271.9,63.8z"/>
	</g>
	<g>
		<path class="st5" d="M258.6,47c0,0.9-0.6,1.2-1.4,0.8c-0.7-0.4-1.4-1.5-1.4-2.3c0-0.9,0.6-1.2,1.4-0.8    C258,45.1,258.6,46.2,258.6,47z"/>
		<path class="st5" d="M262.7,49.4c0,0.9-0.6,1.2-1.4,0.8c-0.7-0.4-1.4-1.5-1.4-2.3c0-0.9,0.6-1.2,1.4-0.8    C262.1,47.5,262.7,48.6,262.7,49.4z"/>
		<path class="st5" d="M266.8,51.8c0,0.9-0.6,1.2-1.4,0.8c-0.7-0.4-1.4-1.5-1.4-2.3c0-0.9,0.6-1.2,1.4-0.8    C266.2,49.9,266.8,50.9,266.8,51.8z"/>
	</g>
</g>
<g>
	<g>
		<path class="st13" d="M255.7,35.1c0-4.9-3.5-10.9-7.7-13.4c-2.1-1.2-4-1.3-5.4-0.6l0,0l-0.1,0c0,0,0,0,0,0l-2.7,1.6l1.3-0.1    c-0.5,0.9-0.8,2.1-0.8,3.5c0,4.9,3.5,10.9,7.7,13.4c1.1,0.7,2.2,1,3.2,1c-0.2,0.3-0.6,1.2-0.6,1.2l2.8-1.6c0.1,0,0.1-0.1,0.2-0.1    l0.1-0.1c0,0,0,0,0,0C254.9,39.2,255.7,37.5,255.7,35.1z"/>
		<ellipse transform="matrix(0.866 -0.5 0.5 0.866 16.7044 126.8954)" class="st6" cx="245.1" cy="32.3" rx="6.3" ry="10.9"/>
	</g>
	<g>
		<path class="st5" d="M244.9,37.2c-0.4-0.2-0.8-0.5-1-0.8c-0.3-0.3-0.5-0.6-0.7-1c-0.2-0.4-0.3-0.7-0.3-1.1    c-0.1-0.4-0.1-0.8-0.1-1.3l1.4,0.8c0,0.3,0,0.5,0,0.7c0,0.2,0.1,0.4,0.1,0.6c0.1,0.2,0.1,0.4,0.2,0.5c0.1,0.1,0.2,0.3,0.4,0.4    c0.1,0.1,0.2,0.1,0.3,0.1c0.1,0,0.1,0,0.2,0c0.1,0,0.1-0.1,0.1-0.2c0-0.1,0.1-0.2,0.1-0.3c0-0.1,0-0.2,0-0.4c0-0.2,0-0.3,0-0.4    c0-0.1,0-0.3,0-0.5c0-0.2,0-0.5,0-0.6c0-0.2,0-0.3-0.1-0.5c0-0.2-0.1-0.4-0.1-0.5c-0.1-0.1-0.1-0.3-0.2-0.4    c-0.1-0.1-0.2-0.2-0.4-0.3c-0.2-0.1-0.4-0.1-0.5-0.1c-0.1,0.1-0.2,0.2-0.3,0.4l-1.2-0.7l0.1-5.4l3.8,2.2v1.5l-2.6-1.5l-0.1,2.3    c0.1-0.1,0.3-0.1,0.5-0.1c0.2,0,0.4,0.1,0.7,0.2c0.3,0.2,0.6,0.4,0.9,0.7c0.2,0.3,0.4,0.6,0.6,0.9c0.1,0.4,0.3,0.7,0.3,1.1    c0.1,0.4,0.1,0.8,0.1,1.3c0,0.4,0,0.8-0.1,1.1c0,0.3-0.1,0.6-0.2,0.9c-0.1,0.3-0.2,0.4-0.4,0.6c-0.2,0.1-0.4,0.2-0.6,0.1    C245.6,37.5,245.3,37.4,244.9,37.2z"/>
	</g>
</g>
<path class="st6" d="M239.8,158.7l-3.7-6c-0.3-0.5-0.1-1.1,0.3-1.4c0.5-0.3,1.1-0.1,1.4,0.3l2.7,4.4l8.5-4.5  c0.5-0.3,1.1-0.1,1.4,0.4c0.3,0.5,0.1,1.1-0.4,1.4L239.8,158.7z"/>
<path class="st6" d="M233.8,134.5c-1.9,0-4.1-1-5.8-2c-5.2-3-7.8-7-7.8-12c0-2.8,1-4.9,2.8-5.9c1.8-1,4.1-0.8,6.5,0.6  c4.6,2.7,8.4,9.2,8.4,14.5c0,2.1-0.7,3.6-1.9,4.3C235.3,134.3,234.6,134.5,233.8,134.5z M225.5,115.8c-0.6,0-1.1,0.1-1.6,0.4  c-1.2,0.7-1.8,2.2-1.8,4.3c0,4.2,2.3,7.7,6.9,10.3c2.7,1.6,5,2.1,6,1.5c0.7-0.4,1-1.3,1-2.7c0-4.7-3.3-10.5-7.4-12.9  C227.5,116.2,226.4,115.8,225.5,115.8z"/>
<path class="st6" d="M241.1,126c-0.3,0-0.5-0.1-0.7-0.3c-4.6-5.6-13.7-9.7-13.8-9.7c-0.5-0.2-0.7-0.8-0.5-1.2  c0.2-0.5,0.8-0.7,1.2-0.5c0.4,0.2,9.6,4.3,14.5,10.3c0.3,0.4,0.3,1-0.1,1.3C241.5,126,241.3,126,241.1,126z"/>
</svg>